<?xml version="1.0" encoding="utf-8"?>
<!-- Generator: Adobe Illustrator 25.4.1, SVG Export Plug-In . SVG Version: 6.00 Build 0)  -->
<svg version="1.1" xmlns="http://www.w3.org/2000/svg" xmlns:xlink="http://www.w3.org/1999/xlink" x="0px" y="0px"
	 viewBox="0 0 113.25 103.38" style="enable-background:new 0 0 113.25 103.38;" xml:space="preserve">
<style type="text/css">
	.st0{fill:#FDC828;}
	.st1{fill:#FFFFFF;}
	.st2{fill:#5204AB;}
</style>
<g id="Layer_1">
	<g id="JFYPG2.tif">
		<g>
			<path class="st0" d="M65.33,33.22c-0.42,1.12-1.06,2.03-2.26,2.42c-1.67,0.54-3.47-0.36-4.06-2c-0.58-1.62,0.22-3.42,1.81-4.09
				c1.62-0.68,3.48,0.05,4.21,1.65c0.1,0.22,0.2,0.44,0.29,0.67C65.33,32.31,65.33,32.76,65.33,33.22z M63.16,32.53
				c-0.01-0.59-0.5-1.07-1.09-1.07c-0.59,0.01-1.07,0.5-1.07,1.09c0.01,0.59,0.5,1.08,1.09,1.07
				C62.67,33.61,63.16,33.11,63.16,32.53z"/>
			<path class="st0" d="M32.11,65.08c-1.16-0.45-2.1-1.11-2.45-2.39c-0.45-1.67,0.47-3.41,2.1-3.95c1.64-0.55,3.41,0.28,4.05,1.9
				c0.63,1.6-0.1,3.43-1.68,4.15c-0.22,0.1-0.44,0.2-0.67,0.29C33.02,65.08,32.57,65.08,32.11,65.08z M33.87,61.86
				c0.02-0.58-0.46-1.09-1.05-1.11c-0.59-0.02-1.09,0.46-1.11,1.05c-0.02,0.59,0.46,1.09,1.05,1.11
				C33.34,62.92,33.85,62.44,33.87,61.86z"/>
			<path class="st0" d="M32.79,52.06c-1.02,0-2.03,0.01-3.05,0c-0.89-0.01-1.27-0.4-1.29-1.29c-0.01-0.68-0.02-1.36,0.01-2.03
				c0.01-0.37-0.08-0.55-0.46-0.68c-0.95-0.34-1.89-0.74-2.81-1.16c-0.33-0.15-0.52-0.12-0.76,0.13c-0.48,0.51-0.98,1-1.48,1.49
				c-0.63,0.61-1.16,0.62-1.77,0.02c-1.46-1.45-2.92-2.9-4.36-4.36c-0.63-0.64-0.61-1.16,0.02-1.82c0.49-0.5,1.01-0.97,1.47-1.5
				c0.13-0.15,0.18-0.48,0.11-0.67c-0.36-0.97-0.81-1.91-1.16-2.88c-0.13-0.36-0.31-0.43-0.64-0.42c-0.72,0.02-1.45,0.02-2.17,0
				c-0.76-0.02-1.17-0.42-1.18-1.18c-0.01-2.1-0.01-4.2,0-6.3c0-0.76,0.42-1.16,1.18-1.18c0.72-0.02,1.45-0.02,2.17,0
				c0.33,0.01,0.5-0.07,0.63-0.43c0.35-0.97,0.8-1.91,1.17-2.88c0.07-0.19,0.02-0.52-0.11-0.67c-0.46-0.53-0.98-1-1.47-1.5
				c-0.64-0.65-0.65-1.18-0.02-1.82c1.45-1.46,2.9-2.92,4.36-4.36c0.61-0.6,1.14-0.59,1.77,0.02c0.5,0.49,1.01,0.98,1.48,1.49
				c0.24,0.26,0.43,0.28,0.76,0.13c0.92-0.42,1.86-0.82,2.81-1.16c0.38-0.14,0.47-0.32,0.46-0.68c-0.02-0.7-0.02-1.4,0-2.1
				c0.02-0.8,0.41-1.21,1.21-1.22c2.08-0.01,4.16-0.01,6.24,0c0.8,0,1.2,0.41,1.22,1.21c0.01,0.7,0.02,1.4,0,2.1
				c-0.01,0.36,0.07,0.54,0.46,0.68c0.95,0.34,1.89,0.74,2.81,1.17c0.33,0.15,0.52,0.13,0.76-0.13c0.46-0.5,0.95-0.97,1.44-1.44
				c0.7-0.69,1.2-0.68,1.92,0.03c1.41,1.4,2.82,2.81,4.22,4.22c0.69,0.69,0.68,1.2-0.02,1.92c-0.46,0.47-0.91,0.94-1.39,1.38
				c-0.28,0.26-0.3,0.47-0.14,0.81c0.42,0.9,0.8,1.82,1.14,2.74c0.13,0.35,0.26,0.51,0.66,0.49c0.72-0.04,1.45-0.02,2.17-0.01
				c0.76,0.02,1.18,0.42,1.18,1.18c0.01,2.1,0.01,4.2,0,6.3c0,0.76-0.42,1.16-1.18,1.18c-0.72,0.02-1.45,0.02-2.17,0
				c-0.33-0.01-0.5,0.07-0.63,0.43c-0.35,0.97-0.8,1.91-1.17,2.88c-0.07,0.19-0.02,0.52,0.11,0.67c0.46,0.53,0.98,1,1.47,1.5
				c0.63,0.65,0.65,1.19,0.02,1.82c-1.43,1.45-2.87,2.88-4.31,4.32c-0.67,0.66-1.18,0.65-1.87-0.02c-0.49-0.47-0.97-0.94-1.44-1.44
				c-0.24-0.26-0.43-0.28-0.76-0.13c-0.92,0.43-1.85,0.83-2.81,1.17c-0.38,0.14-0.47,0.32-0.46,0.68c0.02,0.7,0.02,1.4,0,2.1
				c-0.02,0.8-0.42,1.21-1.22,1.22C34.87,52.07,33.83,52.06,32.79,52.06z M22.21,18.77c-1.11,1.12-2.09,2.11-3.16,3.18
				c0.49,0.46,1.04,0.95,1.57,1.47c0.59,0.59,0.57,0.94,0.22,1.69c-0.63,1.39-1.21,2.8-1.75,4.23c-0.27,0.71-0.55,1.01-1.31,1.01
				c-0.76,0.01-1.52,0-2.29,0c0,1.49,0,2.89,0,4.34c0.77,0,1.49,0,2.21,0c0.86,0.01,1.12,0.28,1.41,1.07
				c0.51,1.39,1.07,2.77,1.69,4.11c0.4,0.86,0.43,1.16-0.27,1.85c-0.51,0.5-1.04,0.98-1.49,1.41c1.09,1.09,2.08,2.07,3.17,3.16
				c0.46-0.5,0.95-1.06,1.47-1.58c0.6-0.6,0.94-0.58,1.69-0.24c1.39,0.63,2.8,1.21,4.23,1.75c0.74,0.28,1.02,0.55,1.03,1.37
				c0.01,0.74,0,1.48,0,2.24c1.48,0,2.88,0,4.34,0c0-0.78-0.01-1.52,0-2.27c0.01-0.8,0.3-1.07,1.05-1.35
				c1.41-0.53,2.8-1.1,4.17-1.72c0.79-0.36,1.12-0.39,1.75,0.24c0.52,0.52,1.02,1.07,1.51,1.58c1.08-1.08,2.06-2.06,3.18-3.19
				c-0.51-0.45-1.06-0.92-1.58-1.42c-0.7-0.68-0.66-0.97-0.25-1.85c0.62-1.32,1.18-2.67,1.67-4.04c0.31-0.84,0.54-1.11,1.44-1.12
				c0.74,0,1.47,0,2.2,0c0-1.49,0-2.88,0-4.34c-0.77,0-1.51,0-2.25,0c-0.82-0.01-1.09-0.29-1.37-1.03
				c-0.53-1.41-1.09-2.81-1.72-4.17c-0.38-0.82-0.41-1.14,0.26-1.79c0.51-0.5,1.06-0.97,1.52-1.38c-1.11-1.12-2.1-2.11-3.17-3.19
				c-0.47,0.5-0.96,1.05-1.49,1.57c-0.57,0.57-0.97,0.63-1.63,0.22c-1.34-0.82-2.76-1.42-4.29-1.78c-0.74-0.17-1-0.53-1-1.31
				c-0.01-0.76,0-1.52,0-2.26c-1.5,0-2.91,0-4.34,0c0,0.77,0,1.5,0,2.22c-0.01,0.82-0.28,1.1-1.02,1.38
				c-1.43,0.54-2.84,1.12-4.23,1.75c-0.75,0.34-1.1,0.37-1.69-0.23C23.16,19.82,22.67,19.27,22.21,18.77z"/>
			<path class="st0" d="M5.04,27.29c-0.69-0.12-1.35-0.24-2.13-0.38c2-9.36,7.16-16.34,15.46-21.12c-0.21-0.65-0.44-1.33-0.65-2.01
				c-0.32-1.02,0.25-1.73,1.3-1.58c2.39,0.34,4.78,0.7,7.17,1.03c0.51,0.07,0.91,0.26,1.1,0.76c0.19,0.52-0.04,0.91-0.4,1.27
				c-1.71,1.71-3.41,3.42-5.13,5.12c-0.77,0.77-1.62,0.56-1.99-0.46c-0.23-0.65-0.45-1.31-0.7-2.05
				C11.56,12.33,6.91,18.73,5.04,27.29z M20.27,4.57c0.37,1.11,0.7,2.09,1.02,3.03c0.85-0.84,1.67-1.66,2.53-2.51
				C22.68,4.92,21.54,4.76,20.27,4.57z"/>
			<path class="st0" d="M59.55,18.13c0.71-0.23,1.39-0.47,2.08-0.68c0.94-0.28,1.64,0.3,1.5,1.27c-0.34,2.46-0.68,4.92-1.09,7.37
				c-0.06,0.35-0.42,0.79-0.74,0.92c-0.29,0.11-0.85-0.03-1.09-0.26c-1.82-1.75-3.61-3.55-5.38-5.36c-0.64-0.65-0.41-1.52,0.45-1.84
				c0.67-0.25,1.36-0.46,2.13-0.71c-2.07-3.7-4.79-6.73-8.15-9.17c-3.35-2.43-7.08-4.04-11.24-4.86c0.12-0.7,0.24-1.37,0.38-2.16
				C47.79,4.67,54.77,9.82,59.55,18.13z M57.84,21c0.8,0.81,1.62,1.63,2.43,2.43c0.15-1.04,0.31-2.18,0.48-3.41
				C59.66,20.39,58.67,20.72,57.84,21z"/>
			<path class="st0" d="M47.2,59.3c0.23,0.71,0.47,1.39,0.67,2.08c0.28,0.94-0.3,1.64-1.27,1.51c-2.46-0.34-4.92-0.68-7.37-1.09
				c-0.35-0.06-0.79-0.41-0.92-0.74c-0.12-0.29,0.02-0.85,0.25-1.09c1.75-1.82,3.55-3.61,5.35-5.38c0.66-0.64,1.51-0.42,1.85,0.44
				c0.13,0.33,0.22,0.69,0.34,1.03c0.11,0.34,0.24,0.67,0.36,1.02c4.19-1.97,11.85-8.32,14.08-19.29c0.67,0.12,1.34,0.23,2.13,0.37
				C60.66,47.53,55.5,54.51,47.2,59.3z M44.32,57.53c-0.84,0.84-1.65,1.65-2.47,2.47c1.07,0.15,2.22,0.32,3.45,0.49
				C44.94,59.41,44.61,58.42,44.32,57.53z"/>
			<path class="st0" d="M6.03,46.95c-0.7,0.23-1.38,0.46-2.07,0.67c-0.94,0.29-1.65-0.28-1.52-1.25c0.34-2.48,0.69-4.96,1.07-7.44
				c0.15-0.95,1.15-1.3,1.84-0.63c1.81,1.77,3.6,3.56,5.37,5.37c0.67,0.68,0.43,1.53-0.48,1.87C9.57,45.78,8.89,46,8.13,46.26
				c4.45,7.52,10.85,12.17,19.41,14.03c-0.12,0.66-0.24,1.33-0.38,2.13C17.77,60.41,10.79,55.24,6.03,46.95z M5.33,41.5
				c-0.17,1.19-0.33,2.33-0.5,3.55c1.09-0.37,2.08-0.7,3.04-1.02C7.03,43.19,6.21,42.37,5.33,41.5z"/>
			<path class="st0" d="M32.78,6.5c-1.8-0.01-3.26-1.5-3.24-3.3c0.02-1.77,1.49-3.21,3.26-3.2c1.8,0.01,3.26,1.5,3.24,3.3
				C36.02,5.06,34.55,6.51,32.78,6.5z M33.87,3.27c0.01-0.59-0.47-1.09-1.06-1.1c-0.59-0.01-1.09,0.47-1.1,1.06
				c-0.01,0.59,0.47,1.09,1.06,1.1C33.36,4.34,33.86,3.86,33.87,3.27z"/>
			<path class="st0" d="M0.25,32.45c0.04-1.76,1.53-3.19,3.31-3.16c1.79,0.03,3.24,1.54,3.2,3.34c-0.04,1.76-1.53,3.19-3.31,3.16
				C1.66,35.76,0.21,34.25,0.25,32.45z M4.58,32.55c0-0.59-0.48-1.08-1.07-1.09c-0.59,0-1.08,0.48-1.09,1.07
				c0,0.59,0.48,1.08,1.07,1.09C4.08,33.62,4.58,33.13,4.58,32.55z"/>
			<path class="st0" d="M32.83,21.69c5.95,0.01,10.81,4.89,10.8,10.85c0,5.99-4.89,10.85-10.89,10.84
				c-5.98-0.02-10.83-4.92-10.8-10.92C21.97,26.51,26.86,21.68,32.83,21.69z M41.47,32.53c0-4.76-3.9-8.66-8.67-8.67
				c-4.77,0-8.68,3.89-8.68,8.65c-0.01,4.8,3.9,8.71,8.7,8.7C37.58,41.2,41.47,37.3,41.47,32.53z"/>
		</g>
	</g>
	<path class="st1" d="M92.06,44.16C88.03,34.5,78.49,27.7,67.37,27.7c-15.33,0-28.18,10.49-31.84,24.69h-5.19
		c-9.09,0-16.46,7.37-16.46,16.46s7.37,16.46,16.46,16.46h61.72c11.36,0,20.58-9.21,20.58-20.58
		C112.63,53.38,103.42,44.16,92.06,44.16z M92.06,77.08H30.33c-4.54,0-8.23-3.7-8.23-8.23c0-4.54,3.69-8.23,8.23-8.23h12.34
		c0-13.64,11.05-24.69,24.69-24.69c9.51,0,17.27,7.23,18.31,16.46h6.38c6.81,0,12.34,5.54,12.34,12.34
		C104.4,71.55,98.86,77.08,92.06,77.08z"/>
	<path class="st1" d="M92.06,77.08H30.33c-4.54,0-8.23-3.7-8.23-8.23c0-4.54,3.69-8.23,8.23-8.23h12.34
		c0-13.64,11.05-24.69,24.69-24.69c9.51,0,17.27,7.23,18.31,16.46h6.38c6.81,0,12.34,5.54,12.34,12.34
		C104.4,71.55,98.86,77.08,92.06,77.08z"/>
	<g>
		<polygon class="st2" points="31.57,90.05 27.13,103.38 34.15,103.38 38.6,90.05 		"/>
		<polygon class="st2" points="46.76,90.05 42.32,103.38 49.35,103.38 53.79,90.05 		"/>
		<polygon class="st2" points="61.96,90.05 57.52,103.38 64.54,103.38 68.99,90.05 		"/>
		<polygon class="st2" points="77.15,90.05 72.71,103.38 79.73,103.38 84.18,90.05 		"/>
		<polygon class="st2" points="92.35,90.05 87.91,103.38 94.93,103.38 99.38,90.05 		"/>
	</g>
</g>
<g id="Capa_2">
</g>
</svg>
