<?xml version="1.0" encoding="utf-8"?>
<!-- Generator: Adobe Illustrator 25.4.1, SVG Export Plug-In . SVG Version: 6.00 Build 0)  -->
<svg version="1.1" xmlns="http://www.w3.org/2000/svg" xmlns:xlink="http://www.w3.org/1999/xlink" x="0px" y="0px"
	 viewBox="0 0 116.6 115.27" style="enable-background:new 0 0 116.6 115.27;" xml:space="preserve">
<style type="text/css">
	.st0{fill-rule:evenodd;clip-rule:evenodd;fill:#5204AB;}
	.st1{fill:#FDC828;}
	.st2{fill:#FFFFFF;}
</style>
<g id="Layer_1">
	<g>
		<path class="st0" d="M90.68,99.02c0.61,0.21,1.12,0.65,1.42,1.26c0.29,0.6,0.34,1.27,0.12,1.9c-0.21,0.63-0.66,1.14-1.26,1.43
			c-0.35,0.17-0.71,0.26-1.1,0.26c-0.96,0-1.81-0.53-2.23-1.39c-0.29-0.6-0.34-1.27-0.12-1.9c0.21-0.63,0.66-1.14,1.26-1.43
			c0.09-0.05,0.19-0.09,0.29-0.12V96.9l-9.48-9.48c-0.15-0.15-0.24-0.36-0.24-0.58v-11.9c0-0.45,0.36-0.81,0.81-0.81
			c0.45,0,0.81,0.36,0.81,0.81v11.57l9.48,9.48c0.15,0.15,0.24,0.36,0.24,0.58V99.02L90.68,99.02z M89.86,102.24
			c0.13,0,0.26-0.03,0.38-0.09c0.21-0.1,0.36-0.28,0.44-0.5c0.08-0.22,0.06-0.45-0.04-0.66c-0.15-0.3-0.44-0.48-0.78-0.48
			c-0.13,0-0.26,0.03-0.38,0.09c-0.21,0.1-0.36,0.28-0.43,0.5c-0.07,0.22-0.06,0.45,0.04,0.66
			C89.24,102.05,89.53,102.24,89.86,102.24z"/>
		<path class="st0" d="M81.03,102.99c0.59,0.21,1.09,0.65,1.38,1.24c0.29,0.6,0.34,1.27,0.12,1.9c-0.21,0.63-0.66,1.14-1.26,1.43
			c-0.34,0.17-0.71,0.26-1.1,0.26c-0.96,0-1.81-0.53-2.23-1.39c-0.29-0.59-0.34-1.27-0.12-1.9c0.21-0.63,0.66-1.14,1.26-1.43
			c0.11-0.05,0.21-0.1,0.33-0.13v-5.2l-6.44-6.44c-0.15-0.15-0.24-0.36-0.24-0.57V74.94c0-0.45,0.37-0.81,0.81-0.81
			c0.45,0,0.81,0.36,0.81,0.81v15.47l6.44,6.44c0.15,0.15,0.24,0.36,0.24,0.57V102.99L81.03,102.99z M80.18,106.19
			c0.13,0,0.26-0.03,0.38-0.09c0.21-0.1,0.36-0.28,0.44-0.49c0.07-0.22,0.06-0.45-0.04-0.66c-0.15-0.3-0.44-0.48-0.78-0.48
			c-0.13,0-0.26,0.03-0.38,0.09c-0.21,0.1-0.36,0.28-0.44,0.49c-0.08,0.22-0.06,0.45,0.04,0.66C79.55,106,79.85,106.19,80.18,106.19
			z"/>
		<path class="st0" d="M43.34,93.79L43.34,93.79c0.39,0,0.76,0.09,1.09,0.25l8.69-8.69V74.94c0-0.45,0.36-0.81,0.81-0.81
			c0.45,0,0.81,0.36,0.81,0.81v10.75c0,0.22-0.09,0.42-0.24,0.58l-8.93,8.93c0.6,1.23,0.09,2.72-1.14,3.32
			c-0.34,0.17-0.71,0.26-1.09,0.26c-0.96,0-1.81-0.53-2.23-1.39c-0.29-0.6-0.34-1.27-0.12-1.9c0.22-0.63,0.66-1.14,1.26-1.43
			C42.58,93.88,42.95,93.79,43.34,93.79L43.34,93.79z M43.34,97.14c0.13,0,0.26-0.03,0.38-0.09c0.43-0.21,0.6-0.73,0.39-1.15
			c-0.15-0.3-0.44-0.48-0.78-0.48c-0.13,0-0.26,0.03-0.38,0.09c-0.21,0.1-0.36,0.28-0.43,0.5c-0.08,0.22-0.06,0.45,0.04,0.66
			C42.71,96.96,43.01,97.14,43.34,97.14z"/>
		<path class="st0" d="M54.46,104.61c0.61,0.21,1.12,0.65,1.42,1.26c0.6,1.23,0.09,2.73-1.14,3.33c-0.34,0.17-0.71,0.26-1.1,0.26
			c-0.96,0-1.81-0.53-2.23-1.39c-0.29-0.6-0.34-1.27-0.12-1.9c0.21-0.63,0.66-1.14,1.26-1.43c0.09-0.05,0.19-0.09,0.28-0.12v-5.23
			c0-0.21,0.09-0.42,0.24-0.57l6.65-6.66V74.94c0-0.45,0.37-0.81,0.81-0.81c0.45,0,0.81,0.36,0.81,0.81v17.55
			c0,0.22-0.09,0.42-0.24,0.58l-6.66,6.66V104.61L54.46,104.61z M53.65,107.83c0.13,0,0.26-0.03,0.38-0.09
			c0.43-0.21,0.6-0.73,0.39-1.16c-0.15-0.3-0.44-0.48-0.77-0.48c-0.13,0-0.26,0.03-0.38,0.09c-0.21,0.1-0.36,0.28-0.44,0.49
			c-0.07,0.22-0.06,0.45,0.04,0.66C53.02,107.65,53.31,107.83,53.65,107.83z"/>
		<path class="st0" d="M63.79,110.43c0.61,0.21,1.12,0.65,1.42,1.25c0.29,0.6,0.34,1.27,0.12,1.9c-0.21,0.63-0.66,1.14-1.26,1.43
			c-0.35,0.17-0.71,0.25-1.1,0.25c-0.96,0-1.81-0.53-2.23-1.39c-0.61-1.23-0.1-2.72,1.14-3.33c0.09-0.05,0.19-0.09,0.28-0.12V99.58
			c0-0.22,0.09-0.42,0.24-0.58l3.78-3.78V74.94c0-0.45,0.36-0.81,0.81-0.81c0.45,0,0.81,0.36,0.81,0.81v20.62
			c0,0.22-0.09,0.42-0.24,0.58l-3.78,3.78V110.43L63.79,110.43z M62.98,113.65c0.13,0,0.26-0.03,0.38-0.09
			c0.21-0.1,0.36-0.28,0.44-0.5c0.07-0.22,0.06-0.45-0.04-0.66c-0.15-0.3-0.44-0.48-0.78-0.48c-0.13,0-0.26,0.03-0.38,0.09
			c-0.43,0.21-0.6,0.73-0.39,1.15C62.35,113.46,62.64,113.65,62.98,113.65z"/>
	</g>
	<g id="_x39_mb4ME.tif">
		<g>
			<path class="st1" d="M40.31,63.88c-0.67,0-1.33,0-2,0c-0.13-0.04-0.26-0.11-0.4-0.13c-1.33-0.22-2.58-0.67-3.66-1.47
				c-0.83-0.61-1.56-1.34-2.38-2.04c-0.13,0.14-0.29,0.32-0.45,0.5c-1.06,1.18-2.33,2.05-3.82,2.58c-0.66,0.23-1.35,0.37-2.02,0.55
				c-0.67,0-1.33,0-2,0c-0.05-0.03-0.11-0.07-0.16-0.08c-3.33-0.45-5.78-2.17-7.32-5.15c-0.2-0.38-0.45-0.4-0.8-0.4
				c-5.39,0.07-9.75-4.28-9.67-9.67c0.01-0.44-0.13-0.66-0.52-0.85c-1.66-0.83-2.92-2.08-3.87-3.68C0.56,42.88,0.27,41.59,0,40.29
				c0-0.67,0-1.33,0-2c0.04-0.13,0.11-0.26,0.13-0.4c0.22-1.33,0.67-2.58,1.47-3.66c0.61-0.83,1.34-1.56,2.04-2.37
				c-0.14-0.13-0.32-0.29-0.5-0.45c-1.18-1.06-2.05-2.33-2.58-3.82C0.32,26.93,0.18,26.24,0,25.57c0-0.67,0-1.33,0-2
				c0.03-0.12,0.08-0.23,0.1-0.35c0.49-3.15,2.12-5.5,4.92-7.01c0.47-0.25,0.63-0.51,0.62-1.05c-0.09-5.2,4.34-9.63,9.55-9.53
				c0.53,0.01,0.79-0.16,1.04-0.63c2.63-5.08,9.26-6.58,13.83-3.11C30.75,2.4,31.34,3.04,32,3.65c0.16-0.18,0.32-0.36,0.48-0.55
				C36.69-1.7,44.7-0.76,47.63,4.92c0.3,0.59,0.65,0.7,1.25,0.7c5.12-0.01,9.47,4.4,9.38,9.52c-0.01,0.57,0.17,0.83,0.66,1.08
				c5.05,2.61,6.55,9.25,3.11,13.79c-0.53,0.7-1.18,1.31-1.79,1.97c0.1,0.09,0.19,0.17,0.28,0.25c5.17,4.53,4.28,12.3-1.79,15.51
				c-0.38,0.2-0.47,0.42-0.47,0.82c0.07,5.4-4.27,9.75-9.67,9.67c-0.44-0.01-0.66,0.12-0.86,0.51c-0.85,1.7-2.14,2.99-3.79,3.93
				C42.82,63.34,41.57,63.61,40.31,63.88z M57.22,44.29c2.94-1.44,3.86-5.57,1.84-8.19c-1.13-1.46-2.61-2.21-4.44-2.3
				c-0.85-0.04-1.48-0.4-1.81-1.2c-0.5-1.23,0.35-2.45,1.78-2.56c3.16-0.25,5.21-2.18,5.54-5.21c0.23-2.08-1.12-4.51-2.91-5.25
				c-0.54,0.69-1.06,1.39-1.63,2.04c-0.53,0.61-1.24,0.74-1.99,0.5c-0.71-0.22-1.19-0.9-1.23-1.65c-0.04-0.71,0.34-1.21,0.77-1.7
				c2.31-2.62,1.62-6.83-1.4-8.57c-2.33-1.35-4.76-1.1-6.8,0.68c-0.95,0.83-2.09,0.84-2.83,0.01c-0.73-0.82-0.6-1.99,0.35-2.79
				c0.6-0.51,1.24-0.97,1.86-1.45c-1.11-2.22-3.89-3.43-6.29-2.73c-2.63,0.77-4.19,2.85-4.2,5.65c-0.01,4.16,0,8.32,0,12.48
				c0,0.16,0.03,0.32,0.04,0.46c1.26,0,2.47,0,3.71,0c0-1.88-0.01-3.71,0.01-5.54c0.01-1.08,0.81-1.88,1.84-1.9
				c1.05-0.02,1.87,0.8,1.9,1.9c0.02,0.64,0,1.29,0,1.93c0,1.2,0,2.4,0,3.65c1.86,0,3.64-0.01,5.42,0c1.22,0.01,2.06,0.78,2.06,1.87
				c0,1.09-0.84,1.87-2.05,1.87c-1.6,0.01-3.2,0-4.81,0c-0.2,0-0.4,0.02-0.6,0.03c0,1.26,0,2.46,0,3.72c0.23,0,0.43,0,0.64,0
				c1.56,0,3.12,0,4.68,0c1.28,0,2.13,0.74,2.14,1.85c0.01,1.13-0.85,1.88-2.16,1.89c-1.46,0-2.91,0-4.37,0c-0.3,0-0.61,0-0.9,0
				c0,1.29,0,2.51,0,3.75c1.88,0,3.71-0.01,5.54,0.01c1.08,0.01,1.88,0.81,1.9,1.83c0.02,1.05-0.79,1.86-1.9,1.9
				c-0.56,0.02-1.12,0-1.68,0c-1.28,0-2.57,0-3.9,0c0,1.85,0.01,3.64,0,5.42c-0.01,1.22-0.77,2.06-1.86,2.06
				c-1.09,0-1.87-0.84-1.88-2.05c-0.01-1.6,0-3.2,0-4.8c0-0.2-0.02-0.4-0.03-0.6c-1.26,0-2.46,0-3.68,0
				c-0.01,0.1-0.03,0.18-0.03,0.26c0,4.31-0.04,8.61,0.01,12.92c0.04,3.1,2.23,5.36,5.32,5.62c2.05,0.17,4.38-1.16,5.14-2.91
				c-0.7-0.56-1.42-1.08-2.08-1.68c-0.65-0.59-0.75-1.56-0.3-2.28c0.44-0.72,1.3-1.1,2.1-0.82c0.4,0.14,0.76,0.42,1.08,0.7
				c2.36,2.05,5.98,1.78,7.99-0.6c1.97-2.33,1.93-5.29-0.09-7.6c-0.84-0.95-0.84-2.09-0.02-2.83c0.84-0.75,2-0.6,2.84,0.39
				C56.31,43.07,56.76,43.69,57.22,44.29z M19.57,57.2c1.45,2.69,4.82,3.72,7.48,2.27c2.03-1.11,3.01-2.87,3.02-5.15
				c0.02-4.18,0.01-8.36,0-12.54c0-0.16-0.03-0.31-0.04-0.46c-1.25,0-2.45,0-3.7,0c0,1.82,0.01,3.6,0,5.39
				c-0.01,1.22-0.77,2.06-1.86,2.06c-1.09,0-1.87-0.84-1.88-2.05c-0.01-1.6,0-3.2,0-4.8c0-0.2-0.02-0.4-0.03-0.63
				c-0.28,0-0.51,0-0.74,0c-1.62,0-3.25,0.02-4.87-0.01c-1.07-0.02-1.86-0.86-1.85-1.88c0.01-1,0.79-1.79,1.82-1.85
				c0.27-0.01,0.54-0.01,0.81-0.01c1.6,0,3.19,0,4.81,0c0-1.27,0-2.49,0-3.74c-1.82,0-3.61,0.01-5.39,0
				c-1.21-0.01-2.05-0.78-2.05-1.87c0-1.09,0.84-1.86,2.06-1.87c1.6-0.01,3.2,0,4.81,0c0.2,0,0.4,0,0.59,0c0-1.29,0-2.49,0-3.74
				c-1.82,0-3.6,0.01-5.38,0c-1.22-0.01-2.06-0.77-2.07-1.86c-0.01-1.09,0.83-1.87,2.05-1.88c1.6-0.01,3.2,0,4.81,0
				c0.2,0,0.4-0.02,0.63-0.03c0-1.69,0-3.33,0-4.98c0-1.6,0.67-2.49,1.89-2.48c1.21,0.01,1.86,0.89,1.86,2.51c0,1.48,0,2.95,0,4.43
				c0,0.18,0.02,0.35,0.03,0.51c1.27,0,2.46,0,3.65,0c0.02-0.07,0.05-0.11,0.05-0.15c0-4.39,0.08-8.78-0.02-13.16
				c-0.09-3.61-3.29-6.08-6.75-5.35c-1.67,0.35-2.91,1.31-3.73,2.76c0.74,0.59,1.45,1.1,2.09,1.68c0.76,0.69,0.8,1.83,0.14,2.58
				c-0.65,0.74-1.7,0.84-2.52,0.22c-0.28-0.21-0.56-0.43-0.84-0.65c-1.86-1.46-4.71-1.45-6.63-0.04c-2.79,2.05-3.29,6.02-0.85,8.58
				c0.83,0.87,0.77,2.06-0.05,2.77c-0.82,0.71-1.97,0.59-2.75-0.33c-0.52-0.61-0.99-1.26-1.48-1.9c-2.66,1.42-3.7,4.8-2.3,7.42
				c1.07,1.99,2.76,2.96,4.99,3.09c1.11,0.06,1.87,0.85,1.86,1.87c0,1.02-0.76,1.77-1.88,1.87c-0.23,0.02-0.46,0.04-0.68,0.07
				c-3.3,0.44-5.47,3.47-4.78,6.71c0.35,1.66,1.31,2.91,2.77,3.72c0.59-0.74,1.1-1.45,1.68-2.1c0.59-0.66,1.54-0.77,2.28-0.35
				c0.74,0.42,1.14,1.33,0.84,2.15c-0.14,0.39-0.43,0.75-0.71,1.08c-2.6,3-1.26,7.83,2.51,9.08c2.12,0.7,4.01,0.3,5.68-1.17
				c0.98-0.86,2.13-0.87,2.87-0.02c0.73,0.84,0.57,1.98-0.43,2.83C20.81,56.29,20.2,56.72,19.57,57.2z M26.36,37.5
				c3.76,0,7.47,0,11.16,0c0-3.75,0-7.46,0-11.15c-3.74,0-7.44,0-11.16,0C26.36,30.07,26.36,33.77,26.36,37.5z"/>
			<path class="st1" d="M33.82,31.94c0,1.02-0.86,1.86-1.87,1.86c-1.02,0-1.86-0.85-1.86-1.87c0-1.02,0.86-1.86,1.87-1.86
				C32.98,30.07,33.82,30.92,33.82,31.94z"/>
		</g>
	</g>
	<path class="st2" d="M95.41,44.16C91.38,34.5,81.84,27.7,70.72,27.7c-15.33,0-28.18,10.49-31.84,24.69h-5.19
		c-9.09,0-16.46,7.37-16.46,16.46s7.37,16.46,16.46,16.46h61.72c11.36,0,20.58-9.21,20.58-20.58
		C115.98,53.38,106.77,44.16,95.41,44.16z M95.41,77.08H33.68c-4.54,0-8.23-3.7-8.23-8.23c0-4.54,3.69-8.23,8.23-8.23h12.34
		c0-13.64,11.05-24.69,24.69-24.69c9.51,0,17.27,7.23,18.31,16.46h6.38c6.81,0,12.34,5.54,12.34,12.34
		C107.75,71.55,102.21,77.08,95.41,77.08z"/>
	<path class="st2" d="M95.41,77.08H33.68c-4.54,0-8.23-3.7-8.23-8.23c0-4.54,3.69-8.23,8.23-8.23h12.34
		c0-13.64,11.05-24.69,24.69-24.69c9.51,0,17.27,7.23,18.31,16.46h6.38c6.81,0,12.34,5.54,12.34,12.34
		C107.75,71.55,102.21,77.08,95.41,77.08z"/>
</g>
<g id="Capa_2">
</g>
</svg>
