<?xml version="1.0" encoding="utf-8"?>
<!-- Generator: Adobe Illustrator 25.4.1, SVG Export Plug-In . SVG Version: 6.00 Build 0)  -->
<svg version="1.1" id="Capa_1" xmlns="http://www.w3.org/2000/svg" xmlns:xlink="http://www.w3.org/1999/xlink" x="0px" y="0px"
	 viewBox="0 0 118.1 56.5" style="enable-background:new 0 0 118.1 56.5;" xml:space="preserve">
<style type="text/css">
	.st0{fill:#FFFFFF;}
	.st1{fill:#FDC828;}
</style>
<g id="Capa_1_00000168801846734527043270000003327759044129825953_">
	<g id="Layer_1">
		<g>
			<path class="st0" d="M58.8,56.5H14.1C6.3,56.5,0,50.2,0,42.4s6.3-14.1,14.1-14.1v-2.4c0-9.1,7.4-16.5,16.5-16.5
				c3.4,0,6.5,1,9.1,2.8C43.1,5,53.9,0,62.4,0l-3.5,9.4c-6.5,0-11.8,5.3-11.8,11.8v4.7h-9.4c0-3.9-3.2-7.1-7.1-7.1s-7.1,3.2-7.1,7.1
				v11.8h-9.4c-2.6,0-4.7,2.1-4.7,4.7c0,2.6,2.1,4.7,4.7,4.7h44.7C58.8,47.1,58.8,56.5,58.8,56.5z"/>
		</g>
	</g>
	<g id="XnIJI8.tif">
		<g>
			<g>
				<path class="st1" d="M117.7,37.2c-0.3,0.5-0.8,0.7-1.3,0.7c-1.2,0.1-2.1,0.5-2.4,1.8c-0.1,0.5-0.2,0.8,0.1,1.2
					c0.3,0.4,0.6,0.9,0.9,1.3c0.3,0.5,0.3,0.9-0.1,1.3c-0.7,0.7-1.4,1.4-2.1,2.1c-0.4,0.4-0.8,0.4-1.3,0.2c-0.1-0.1-0.3-0.2-0.4-0.3
					c-1.6-1-1.6-1-3.3-0.2c-0.1,0.1-0.3,0.3-0.3,0.4c-0.2,0.6-0.3,1.2-0.4,1.8c-0.2,0.7-0.6,1-1.1,0.9c-0.6-0.1-0.8-0.6-0.7-1.3
					c0.2-0.9,0.4-1.8,0.6-2.6c0.1-0.5,0.4-0.7,0.8-0.8c0.8-0.3,1.6-0.6,2.4-1c0.5-0.2,0.9-0.2,1.3,0.1c0.4,0.2,0.8,0.4,1.1,0.7
					c0.5,0.4,0.8,0.3,1.2-0.1c0.2-0.2,0.4-0.4,0.7-0.6c-0.4-0.6-0.7-1.2-1.1-1.7c-0.3-0.5-0.3-0.9-0.1-1.4c0.4-0.7,0.7-1.5,0.9-2.2
					c0.2-0.5,0.5-0.8,1-0.9c0.6-0.1,1.3-0.3,1.9-0.4c0-0.5,0-1.1,0-1.6c-0.6-0.1-1.3-0.3-1.9-0.4c-0.5-0.1-0.8-0.4-1-0.9
					c-0.3-0.8-0.6-1.5-0.9-2.3c-0.2-0.5-0.3-0.9,0-1.3c0.2-0.3,0.4-0.6,0.5-0.8c0.2-0.3,0.5-0.7,0.4-0.9c-0.2-0.4-0.6-0.7-0.9-1
					c-0.1-0.1-0.3,0-0.4,0.1c-0.5,0.3-0.9,0.6-1.4,0.9c-0.4,0.3-0.8,0.3-1.3,0.1c-0.7-0.4-1.5-0.7-2.3-0.9c-0.5-0.2-0.8-0.4-0.9-1
					c-0.1-0.6-0.3-1.3-0.4-1.9c-0.3,0-0.5,0-0.8,0c0,1.9,0,3.7,0,5.5c1.6,0.1,3,0.6,4,1.8c2.3,2.4,2,6.1-0.6,8.2
					c-0.6,0.5-1.2,0.5-1.6,0.1c-0.4-0.5-0.3-1,0.4-1.5c1.3-1,1.7-2.4,1.3-3.9c-0.4-1.5-1.5-2.4-3.1-2.7c-0.2,0-0.3,0-0.6,0
					c0,0.3,0,0.5,0,0.7c0,6.1,0,12.2,0,18.4c0,3.1-2,5-5,5c-6.6,0-13.1,0-19.7,0c-3.1,0-5-2-5-5c0-5.5,0-11.1,0-16.6
					c0-0.2,0-0.5,0-0.7c-0.5,0-0.9,0-1.4,0c-0.7,0-1-0.2-1.1-0.9c-0.1-0.6-0.2-1.2-0.4-1.7c-0.1-0.2-0.3-0.4-0.5-0.5
					c-0.1-0.1-0.4-0.1-0.5-0.2c-0.8-0.6-1.5-0.3-2.2,0.2c-1.5,1-1.5,1-2.8-0.3c-0.5-0.5-0.9-0.9-1.4-1.4c-0.4-0.4-0.5-0.9-0.2-1.4
					s0.6-1,1-1.5c0.1-0.1,0.1-0.2,0.2-0.3c0.2-0.3-0.7-2.2-1.1-2.3c-0.6-0.1-1.2-0.3-1.8-0.4c-0.7-0.2-0.9-0.4-0.9-1.1
					c0-0.9,0-1.9,0-2.8c0-0.6,0.3-1,0.9-1.1c0.6-0.1,1.2-0.3,1.8-0.4c0.1,0,0.3-0.1,0.4-0.2c0.3-0.6,0.6-1.2,0.8-1.9
					c0-0.1-0.1-0.2-0.1-0.4c-0.3-0.5-0.7-1.1-1-1.6c-0.3-0.5-0.3-1,0.1-1.4c0.7-0.7,1.4-1.4,2.1-2.1c0.4-0.4,0.8-0.4,1.3-0.1
					c0.1,0.1,0.2,0.1,0.3,0.2c0.5,0.3,1,0.9,1.6,0.9c0.6,0,1.2-0.4,1.7-0.7c0.1-0.1,0.3-0.3,0.3-0.4c0.1-0.9,0.2-1.5,0.3-2.1
					c0.1-0.6,0.6-0.9,1.1-0.8c0.5,0.1,0.9,0.6,0.7,1.2c-0.2,0.9-0.3,1.9-0.6,2.8c-0.1,0.3-0.4,0.6-0.7,0.8c-0.8,0.4-1.7,0.7-2.5,1.1
					c-0.4,0.2-0.8,0.2-1.2,0c-0.5-0.3-0.9-0.6-1.4-0.9c-0.1-0.1-0.4,0-0.6,0.1c-0.3,0.2-0.6,0.5-0.9,0.8c0.4,0.7,0.8,1.2,1.1,1.8
					c0.3,0.4,0.3,0.8,0,1.3c-0.4,0.8-0.7,1.5-1,2.3c-0.2,0.5-0.4,0.8-0.9,0.9c-0.7,0.1-1.3,0.3-2,0.4c0,0.5,0,1,0,1.6
					c0.6,0.1,1.3,0.3,1.9,0.4c0.5,0.1,0.8,0.4,1,0.9c0.3,0.8,0.6,1.5,0.9,2.3c0.2,0.5,0.3,0.9,0,1.3c-0.3,0.4-0.5,0.9-0.8,1.3
					c-0.2,0.3-0.2,0.5,0.1,0.8c0.8,0.8,0.8,0.8,1.7,0.2c0,0,0.1,0,0.1-0.1c0.8-0.7,1.6-0.8,2.5-0.2c0.5,0.3,1.2,0.5,1.7,0.7
					c0.5,0.1,0.7,0.4,0.8,0.9c0.1,0.7,0.3,1.3,0.4,2c0.3,0,0.5,0,0.8,0c0-1.8,0-3.7,0-5.5c-1.2-0.1-2.4-0.4-3.4-1.2
					c-3-2.3-3-6.7,0-8.9c0.3-0.2,0.7-0.4,1-0.3c0.3,0.1,0.6,0.4,0.7,0.7c0,0.3-0.2,0.8-0.4,1c-0.8,0.7-1.4,1.5-1.5,2.5
					c-0.4,2.2,1.4,4.3,3.7,4.3c0-0.2,0-0.5,0-0.7c0-6.1,0-12.2,0-18.4c0-2.8,1.2-4.3,3.9-5c0,0,0.1,0,0.1-0.1c7.3,0,14.6,0,21.8,0
					l0.1,0.1c2.7,0.7,3.9,2.3,3.9,5c0,5.5,0,11,0,16.5c0,0.2,0,0.5,0,0.7c0.5,0,0.9,0,1.4,0c0.7,0,1,0.2,1.2,1
					c0.1,0.6,0.2,1.2,0.4,1.8c0,0.2,0.2,0.3,0.3,0.4c0.6,0.3,1.2,0.7,1.7,0.7c0.6-0.1,1.1-0.6,1.7-0.9c0.1-0.1,0.2-0.1,0.3-0.2
					c0.5-0.3,0.9-0.3,1.3,0.1c0.7,0.7,1.4,1.4,2.1,2.1c0.4,0.4,0.5,0.9,0.1,1.4c-0.3,0.5-0.7,1-1,1.6c-0.1,0.2-0.1,0.4,0,0.6
					c0.3,1.4,1.2,2.1,2.6,2.2c0.4,0,0.7,0.4,1.1,0.7C117.7,34.7,117.7,35.9,117.7,37.2z M76.8,27.8c0,7.6,0,15.2,0,22.8
					c0,2.2,1.1,3.3,3.2,3.3c6.5,0,13.1,0,19.6,0c2.1,0,3.2-1.1,3.2-3.2c0-15.2,0-30.5,0-45.7c0-2.1-1.1-3.2-3.2-3.2
					c-6.5,0-13.1,0-19.6,0c-2.1,0-3.2,1.1-3.2,3.2C76.8,12.6,76.8,20.2,76.8,27.8z"/>
				<path class="st1" d="M99.8,56.5H80c-3.3,0-5.4-2.1-5.4-5.4v-17h-1.1c-0.9,0-1.3-0.3-1.4-1.2c-0.1-0.6-0.2-1.1-0.4-1.6
					c-0.1-0.1-0.2-0.3-0.3-0.3L71.4,31c0,0-0.1,0-0.1,0c-0.1,0-0.3-0.1-0.4-0.2c-0.5-0.4-1-0.3-1.8,0.2c-1.6,1.1-1.8,1.1-3.2-0.3
					l-1.4-1.4c-0.5-0.5-0.6-1.2-0.2-1.8c0.3-0.5,0.6-1,1-1.5l0.1-0.1c0,0,0-0.1,0.1-0.2c0-0.4-0.6-1.7-0.9-1.8
					c-0.3,0-0.6-0.1-0.9-0.2c-0.3-0.1-0.6-0.1-0.9-0.2c-0.8-0.2-1.2-0.5-1.2-1.4v-2.8c0-0.8,0.4-1.3,1.2-1.4c0.3,0,0.6-0.1,0.9-0.2
					c0.3-0.1,0.6-0.2,0.9-0.2c0.1,0,0.1,0,0.2-0.1c0.3-0.6,0.5-1.1,0.7-1.7c0-0.1-0.1-0.2-0.1-0.3c-0.1-0.2-0.3-0.5-0.4-0.7
					c-0.2-0.3-0.3-0.5-0.5-0.8c-0.4-0.6-0.3-1.3,0.1-1.8l2.1-2.1c0.5-0.5,1-0.5,1.7-0.1l0.1,0.1c0.1,0,0.1,0.1,0.2,0.2
					c0.1,0,0.3,0.2,0.4,0.3c0.3,0.2,0.6,0.5,0.9,0.5c0.4,0,0.9-0.3,1.4-0.6l0.1-0.1c0.1-0.1,0.1-0.2,0.2-0.2c0.1-0.9,0.2-1.5,0.3-2
					c0.1-0.4,0.2-0.7,0.5-0.9c0.3-0.2,0.6-0.3,0.9-0.2c0.3,0.1,0.6,0.3,0.8,0.5V5.4c0-2.9,1.3-4.6,3.9-5.3V0h22.3l0.1,0.1
					c2.7,0.7,4,2.4,4,5.3v16.9h1.1c0.9,0,1.3,0.3,1.5,1.2c0.1,0.6,0.2,1.2,0.4,1.8l0,0.1c0,0,0.1,0,0.1,0.1c0,0,0,0,0.1,0.1
					c0.1,0.1,0.2,0.1,0.4,0.2c0.4,0.2,0.8,0.4,1.1,0.4c0.3,0,0.6-0.2,0.9-0.5c0.2-0.1,0.4-0.3,0.6-0.4c0.1-0.1,0.1-0.1,0.2-0.1
					l0.1-0.1c0.6-0.4,1.2-0.3,1.7,0.1l2.1,2.1c0.5,0.5,0.6,1.2,0.1,1.8c-0.1,0.2-0.2,0.3-0.3,0.5c-0.2,0.3-0.4,0.6-0.6,1
					c-0.1,0.1-0.1,0.2,0,0.3c0.3,1.3,1,1.9,2.3,2c0,0,0,0,0,0c0.4,0,0.7,0.3,1,0.5c0.1,0.1,0.2,0.2,0.3,0.2l0.1,0.1l0,0.1
					c0.3,0.8,0.3,2,0.3,3.4v0.1l0,0.1c-0.3,0.5-0.9,0.8-1.6,0.8c-1.2,0.1-1.8,0.5-2.1,1.5l0,0.1c-0.1,0.4-0.1,0.6,0.1,0.8
					c0.2,0.2,0.3,0.4,0.5,0.7c0.1,0.2,0.3,0.4,0.4,0.6c0.4,0.7,0.4,1.2-0.1,1.7l-2.1,2.1c-0.6,0.6-1.2,0.4-1.6,0.3l-0.1-0.1
					c0,0-0.1-0.1-0.1-0.1c-0.1-0.1-0.2-0.1-0.2-0.2c-1.4-0.8-1.4-0.9-2.8-0.2c-0.1,0.1-0.2,0.2-0.2,0.2c-0.2,0.6-0.3,1.2-0.4,1.8
					c-0.2,0.9-0.8,1.3-1.5,1.2c-0.3-0.1-1.1-0.3-0.9-1.6l0-0.2c0.2-0.8,0.4-1.7,0.6-2.4c0.1-0.5,0.4-0.9,1-1c0.7-0.3,1.5-0.6,2.3-1
					c0.4-0.2,1-0.3,1.6,0.1c0.4,0.2,0.8,0.4,1.1,0.7c0.3,0.2,0.4,0.2,0.7-0.1c0.1-0.1,0.3-0.3,0.5-0.4c-0.1-0.1-0.2-0.3-0.3-0.4
					c-0.2-0.3-0.4-0.7-0.6-1c-0.4-0.6-0.4-1.1-0.1-1.7c0.4-0.8,0.7-1.6,0.9-2.1c0.3-0.6,0.7-1,1.2-1.1c0.3-0.1,0.6-0.1,0.9-0.2
					c0.2-0.1,0.5-0.1,0.7-0.2v-1c-0.2,0-0.5-0.1-0.7-0.2c-0.3-0.1-0.6-0.1-0.9-0.2c-0.6-0.1-1-0.5-1.2-1.1c-0.2-0.4-0.3-0.8-0.4-1.1
					c-0.1-0.4-0.3-0.7-0.4-1.1c-0.2-0.5-0.4-1,0-1.6c0.2-0.3,0.4-0.6,0.5-0.7l0.1-0.1c0.1-0.1,0.3-0.4,0.3-0.5
					c-0.1-0.2-0.3-0.4-0.6-0.6c-0.1,0-0.1-0.1-0.2-0.1c0,0,0,0,0,0c-0.3,0.2-0.5,0.3-0.7,0.5c-0.2,0.2-0.5,0.3-0.7,0.5
					c-0.6,0.4-1.2,0.3-1.6,0.1c-0.7-0.4-1.4-0.7-2.2-0.9c-0.5-0.2-1-0.5-1.1-1.2c0-0.3-0.1-0.6-0.2-0.9c-0.1-0.2-0.1-0.5-0.2-0.7
					h-0.2v4.9c1.7,0.2,3,0.8,4,1.9c1.1,1.2,1.7,2.7,1.6,4.4c-0.1,1.7-0.9,3.2-2.2,4.3c-0.7,0.6-1.5,0.6-2,0.1
					c-0.3-0.3-0.4-0.6-0.3-0.9c0.1-0.4,0.3-0.7,0.8-1c1.1-0.9,1.5-2.1,1.2-3.5c-0.4-1.3-1.3-2.2-2.8-2.4l-0.2,0v18.7
					C105.1,54.4,103,56.5,99.8,56.5z M71.8,30.5c0.2,0.1,0.5,0.4,0.6,0.6c0.2,0.6,0.3,1.2,0.4,1.8c0.1,0.5,0.2,0.6,0.8,0.6h1.7v17.6
					c0,2.9,1.9,4.7,4.7,4.7h19.7c2.9,0,4.7-1.9,4.7-4.7V31.8h0.9c1.8,0.3,3,1.3,3.4,2.9c0.4,1.7-0.1,3.2-1.4,4.2
					c-0.3,0.2-0.5,0.4-0.5,0.6c0,0.1,0,0.3,0.2,0.4c0.4,0.4,0.9,0,1.1-0.1c1.2-1,1.9-2.3,2-3.8c0.1-1.5-0.4-2.8-1.4-3.9
					c-0.9-1-2.2-1.6-3.8-1.7l-0.3,0v-6.2h1.4l0,0.3c0,0.3,0.1,0.6,0.2,0.9c0.1,0.3,0.2,0.7,0.2,1c0.1,0.4,0.2,0.6,0.7,0.7
					c0.8,0.2,1.6,0.5,2.3,0.9c0.4,0.1,0.7,0.1,0.9-0.1c0.3-0.2,0.5-0.3,0.7-0.5c0.2-0.2,0.5-0.3,0.7-0.5c0.1-0.1,0.6-0.3,0.8,0
					c0.1,0.1,0.1,0.1,0.2,0.2c0.3,0.2,0.6,0.5,0.7,0.9c0.2,0.3-0.1,0.7-0.3,1.1l-0.1,0.1c-0.1,0.2-0.3,0.5-0.5,0.8
					c-0.2,0.2-0.2,0.5,0,1c0.1,0.4,0.3,0.8,0.4,1.1c0.2,0.4,0.3,0.8,0.5,1.2c0.2,0.4,0.4,0.6,0.8,0.7c0.3,0,0.6,0.1,0.9,0.2
					c0.3,0.1,0.6,0.1,0.9,0.2l0.3,0v2.1l-0.3,0c-0.3,0-0.6,0.1-0.9,0.2c-0.3,0.1-0.7,0.2-1,0.2c-0.4,0.1-0.6,0.3-0.7,0.7
					c-0.2,0.5-0.4,1.4-0.9,2.2c-0.2,0.4-0.1,0.7,0.1,1.1c0.2,0.3,0.4,0.6,0.7,1c0.1,0.2,0.3,0.4,0.4,0.7l0.2,0.3l-0.3,0.2
					c-0.3,0.2-0.5,0.4-0.6,0.6c-0.4,0.4-0.9,0.7-1.6,0.1c-0.3-0.3-0.6-0.5-1-0.7c-0.3-0.2-0.6-0.3-1-0.1c-0.8,0.4-1.6,0.7-2.4,1
					c-0.4,0.1-0.5,0.2-0.6,0.6c-0.2,0.8-0.4,1.6-0.6,2.4l0,0.1c-0.1,0.8,0.3,0.9,0.4,0.9c0.3,0.1,0.6-0.2,0.7-0.7
					c0.1-0.5,0.2-1.2,0.4-1.8c0-0.2,0.2-0.4,0.4-0.6l0.1-0.1c1.8-0.8,1.9-0.8,3.6,0.2c0.1,0.1,0.2,0.1,0.2,0.2
					c0.1,0,0.1,0.1,0.2,0.1c0.4,0.2,0.6,0.1,0.9-0.1l2.1-2.1c0.2-0.2,0.3-0.5,0.1-0.9c-0.1-0.2-0.3-0.4-0.4-0.6
					c-0.1-0.2-0.3-0.4-0.4-0.6c-0.4-0.5-0.3-0.9-0.2-1.3l0-0.1c0.4-1.6,1.6-1.9,2.7-2c0.3,0,0.7-0.1,1-0.5c0-1.2,0-2.3-0.2-3
					c-0.1-0.1-0.2-0.1-0.3-0.2c-0.2-0.2-0.4-0.4-0.6-0.4c-1.6-0.1-2.6-0.9-2.9-2.4c-0.1-0.2-0.1-0.5,0-0.8c0.2-0.4,0.4-0.7,0.6-1.1
					c0.1-0.2,0.2-0.4,0.4-0.5c0.3-0.4,0.3-0.7-0.1-1l-2.1-2.1c-0.2-0.2-0.5-0.3-0.9,0c0,0-0.1,0.1-0.2,0.1l-0.1,0.1
					c-0.2,0.1-0.4,0.2-0.6,0.4c-0.4,0.2-0.7,0.5-1.2,0.6c-0.5,0-1-0.2-1.5-0.5c-0.1-0.1-0.3-0.1-0.4-0.2l-0.1-0.1
					c-0.2-0.1-0.4-0.3-0.4-0.6c-0.2-0.6-0.3-1.2-0.4-1.8c-0.2-0.6-0.3-0.7-0.9-0.7h-1.7V5.4c0-2.6-1.1-4.1-3.6-4.7l-0.1,0l-0.1-0.1
					H78.8c-0.1,0.1-0.1,0.1-0.2,0.1C76.1,1.4,75,2.8,75,5.4v19.4h-0.3c-1.2,0-2.3-0.5-3.1-1.5c-0.8-0.9-1.1-2.1-0.9-3.3
					c0.1-0.9,0.6-1.8,1.6-2.7c0.1-0.1,0.3-0.5,0.3-0.7c-0.1-0.2-0.3-0.4-0.5-0.4c-0.1,0-0.3,0-0.7,0.3c-1.3,1-2.1,2.4-2.1,4.1
					c0,1.7,0.7,3.2,2.1,4.3c0.8,0.7,1.8,1,3.2,1.1l0.3,0v6.1h-1.4l0-0.3c0-0.3-0.1-0.6-0.2-1c-0.1-0.3-0.2-0.7-0.2-1
					c-0.1-0.4-0.2-0.6-0.5-0.6c-0.2-0.1-0.4-0.1-0.5-0.2c-0.4-0.1-0.9-0.3-1.3-0.5c-0.7-0.5-1.3-0.5-2,0.1c-0.1,0.1-0.1,0.2-0.3,0.2
					c-1,0.6-1.2,0.6-2-0.3c-0.4-0.4-0.4-0.8-0.1-1.2c0.1-0.2,0.3-0.4,0.4-0.6c0.1-0.2,0.3-0.5,0.4-0.7c0.2-0.2,0.2-0.5,0-1
					c-0.1-0.4-0.3-0.8-0.4-1.1c-0.1-0.4-0.3-0.7-0.4-1.1c-0.2-0.4-0.4-0.6-0.7-0.7c-0.3,0-0.6-0.1-0.9-0.2c-0.3-0.1-0.6-0.1-0.9-0.2
					l-0.3,0v-2.1l0.3,0c0.3,0,0.6-0.1,1-0.2c0.3-0.1,0.7-0.2,1-0.2c0.3-0.1,0.4-0.2,0.6-0.7c0.3-0.8,0.6-1.5,1-2.3
					c0.3-0.5,0.2-0.7,0-0.9c-0.2-0.4-0.4-0.7-0.6-1c-0.2-0.3-0.3-0.5-0.5-0.8L66,13.3l0.2-0.2c0.3-0.3,0.6-0.6,0.9-0.8
					c0.3-0.2,0.8-0.3,1-0.1c0.2,0.1,0.4,0.3,0.6,0.4c0.2,0.1,0.4,0.3,0.7,0.4c0.3,0.1,0.6,0.1,0.9,0c0.4-0.2,0.8-0.4,1.3-0.6
					c0.4-0.2,0.8-0.3,1.2-0.5c0.2-0.2,0.5-0.4,0.5-0.6c0.2-0.6,0.3-1.2,0.4-1.8c0.1-0.3,0.1-0.7,0.2-1c0.1-0.2,0.1-0.4,0-0.5
					c-0.1-0.1-0.2-0.3-0.4-0.3c-0.2,0-0.3,0-0.4,0.1c-0.1,0.1-0.2,0.2-0.3,0.4c-0.1,0.6-0.2,1.2-0.3,2.1c0,0.2-0.1,0.3-0.4,0.6
					l-0.2,0.1c-0.5,0.3-1.1,0.7-1.7,0.7c-0.5,0-0.9-0.3-1.3-0.6c-0.1-0.1-0.3-0.2-0.4-0.3l-0.1-0.1c-0.1,0-0.1-0.1-0.2-0.2
					c-0.4-0.2-0.6-0.1-0.8,0.1l-2.1,2.1c-0.1,0.1-0.4,0.4-0.1,1c0.1,0.2,0.3,0.5,0.5,0.8c0.2,0.3,0.3,0.5,0.5,0.8l0,0.1v0.1
					c0,0.1,0,0.1,0,0.1c0,0.1,0.1,0.1,0.1,0.3l0,0.1c-0.2,0.7-0.5,1.3-0.8,1.9L65.3,18c-0.1,0.1-0.4,0.3-0.6,0.3
					c-0.2,0-0.5,0.1-0.8,0.2c-0.3,0.1-0.6,0.2-0.9,0.2c-0.4,0.1-0.6,0.3-0.6,0.8v2.8c0,0.5,0.1,0.6,0.7,0.8c0.3,0,0.6,0.1,0.9,0.2
					c0.3,0.1,0.6,0.1,0.9,0.2c0.6,0.1,1.2,1.6,1.2,1.7c0.3,0.7,0.2,0.9,0.1,1.1L66,26.3c0,0.1-0.1,0.1-0.2,0.2
					c-0.4,0.5-0.7,0.9-0.9,1.4c-0.2,0.3-0.2,0.7,0.1,1l1.4,1.4c1.1,1.1,1.1,1.1,2.4,0.3c0.7-0.5,1.6-0.9,2.5-0.2c0,0,0.1,0,0.1,0
					C71.6,30.4,71.7,30.5,71.8,30.5z M74.1,31.6h0.2v-4.9c-1.3-0.2-2.4-0.6-3.2-1.2c-1.5-1.2-2.4-2.9-2.3-4.8c0-1.8,0.9-3.5,2.4-4.6
					c0.5-0.3,0.9-0.5,1.3-0.3c0.4,0.1,0.8,0.5,0.9,0.9l0,0.1c0,0.4-0.2,1-0.5,1.2c-0.9,0.8-1.3,1.5-1.4,2.3c-0.2,1,0.1,2,0.8,2.8
					c0.6,0.7,1.4,1.1,2.3,1.2V9.5c0,0.1,0,0.2,0,0.2c-0.1,0.6-0.2,1.2-0.4,1.8c-0.1,0.3-0.4,0.7-0.8,1c-0.4,0.2-0.9,0.4-1.3,0.6
					c-0.4,0.2-0.8,0.3-1.2,0.5c-0.5,0.2-1,0.2-1.5,0c-0.3-0.2-0.5-0.3-0.7-0.5c-0.2-0.1-0.4-0.3-0.7-0.4c-0.1,0-0.2,0-0.3,0.1
					c-0.2,0.1-0.4,0.3-0.6,0.6c0.1,0.2,0.3,0.4,0.4,0.6c0.2,0.3,0.4,0.6,0.6,1c0.3,0.5,0.3,1,0,1.6c-0.4,0.7-0.7,1.4-1,2.2
					c-0.2,0.5-0.4,1-1.1,1.1c-0.4,0.1-0.7,0.1-1,0.2c-0.2,0.1-0.5,0.1-0.7,0.2v1c0.2,0,0.5,0.1,0.7,0.2c0.3,0.1,0.6,0.1,0.9,0.2
					c0.6,0.1,1,0.5,1.2,1.1c0.1,0.4,0.3,0.8,0.4,1.1c0.1,0.4,0.3,0.7,0.4,1.1c0.2,0.5,0.4,1,0,1.6c-0.1,0.2-0.3,0.4-0.4,0.6
					c-0.1,0.2-0.3,0.5-0.4,0.7c-0.1,0.2-0.1,0.2,0.1,0.4c0.6,0.6,0.6,0.6,1.2,0.2v0l0.1-0.1c0.9-0.8,1.9-0.9,2.9-0.2
					c0.3,0.2,0.7,0.3,1.1,0.5c0.2,0.1,0.3,0.1,0.5,0.2c0.7,0.1,0.9,0.7,1,1.1c0.1,0.4,0.1,0.7,0.2,1C74,31.1,74,31.3,74.1,31.6z
					 M112.1,27.4C112.1,27.4,112.1,27.4,112.1,27.4C112.1,27.4,112.1,27.4,112.1,27.4z M99.6,54.2H79.9c-2.3,0-3.5-1.2-3.5-3.6V5
					c0-2.2,1.2-3.5,3.5-3.5h19.6c2.2,0,3.5,1.2,3.5,3.5v45.7C103.1,53,101.8,54.2,99.6,54.2z M79.9,2.2c-1.9,0-2.8,1-2.8,2.8v45.6
					c0,2,0.9,2.9,2.8,2.9h19.6c1.9,0,2.8-1,2.8-2.8V5c0-1.9-1-2.8-2.8-2.8H79.9z"/>
			</g>
			<g>
				<path class="st1" d="M82.8,27.8c1,1,2,2,2.9,3c0.2,0.3,0.4,0.7,0.4,1c-0.1,0.8-1,0.9-1.6,0.3c-1-1-2.1-2-3.1-3.1
					c-1.2-1.2-1.2-1.3,0-2.5c1-1,2-2.1,3.1-3.1c0.5-0.5,1-0.5,1.4-0.1c0.4,0.4,0.4,0.9-0.1,1.4C84.8,25.9,83.8,26.9,82.8,27.8z"/>
				<path class="st1" d="M85.3,32.8c-0.4,0-0.8-0.2-1.1-0.5c-0.3-0.3-0.7-0.7-1-1c-0.7-0.7-1.4-1.4-2.1-2.1c-1.3-1.3-1.3-1.6,0-2.9
					c0.3-0.3,0.6-0.7,1-1c0.7-0.7,1.4-1.4,2.1-2.1c0.3-0.3,0.6-0.5,1-0.5c0,0,0,0,0,0c0.3,0,0.6,0.1,0.8,0.4
					c0.3,0.3,0.4,0.6,0.4,0.9c0,0.3-0.2,0.6-0.5,0.9c-0.9,1-1.8,1.9-2.7,2.8c0.9,0.9,1.8,1.8,2.6,2.7c0.2,0.3,0.5,0.8,0.5,1.2
					c-0.1,0.5-0.3,0.8-0.7,0.9C85.6,32.8,85.4,32.8,85.3,32.8z M85.2,23.4c-0.2,0-0.4,0.2-0.5,0.3c-0.7,0.7-1.4,1.4-2.1,2.1
					c-0.3,0.3-0.7,0.7-1,1c-0.5,0.5-0.8,0.8-0.8,1c0,0.2,0.3,0.5,0.8,1c0.7,0.7,1.4,1.4,2.1,2.1c0.3,0.3,0.7,0.7,1,1
					c0.3,0.3,0.6,0.3,0.8,0.3c0.1-0.1,0.2-0.2,0.3-0.4c0-0.1-0.1-0.5-0.3-0.8c-0.9-0.9-1.9-1.9-2.8-2.9l-0.2-0.2l0.2-0.2
					c1-1,2-2,3-3c0.2-0.2,0.3-0.4,0.3-0.5c0-0.1-0.1-0.3-0.2-0.4C85.5,23.5,85.4,23.4,85.2,23.4C85.2,23.4,85.2,23.4,85.2,23.4z"/>
			</g>
			<g>
				<path class="st1" d="M96.9,27.9c-1-1-2-2-3-3c-0.2-0.2-0.4-0.6-0.4-0.9c0-0.3,0.3-0.7,0.6-0.7c0.3-0.1,0.8,0,1,0.3
					c1,0.9,2,1.9,3,2.9c1.4,1.4,1.4,1.4,0,2.8c-1,1-1.9,1.9-2.9,2.9c-0.5,0.5-0.9,0.5-1.4,0.2c-0.5-0.4-0.5-1,0-1.5
					C94.8,29.9,95.8,28.9,96.9,27.9z"/>
				<path class="st1" d="M94.5,32.9c-0.2,0-0.5-0.1-0.8-0.2c-0.3-0.3-0.5-0.6-0.5-0.9c0-0.4,0.1-0.7,0.5-1.1
					c0.9-0.9,1.8-1.8,2.8-2.7l-2.7-2.7c-0.2-0.2-0.5-0.7-0.5-1.1c0-0.4,0.4-1,0.9-1c0.4-0.1,1,0,1.3,0.4c0.9,0.8,1.9,1.8,2.9,2.8
					c1.5,1.5,1.5,1.7,0,3.2l-2.9,2.9C95.1,32.7,94.8,32.9,94.5,32.9z M94.1,23.7c-0.1,0-0.3,0.2-0.3,0.4c0,0.2,0.2,0.5,0.3,0.7
					l3.2,3.2l-0.2,0.2c-1.1,1-2.1,2-3,3c-0.2,0.2-0.3,0.4-0.3,0.6c0,0.2,0.1,0.3,0.2,0.4c0.3,0.2,0.6,0.2,1-0.2l2.9-2.9
					c1.2-1.2,1.2-1.2,0-2.3c-1-1-2-2-3-2.9c-0.2-0.2-0.5-0.3-0.7-0.2L94.1,23.7z"/>
			</g>
			<g>
				<path class="st1" d="M91.7,24.2c0,0.1,0,0.2-0.1,0.3c-0.6,2.4-1.2,4.6-1.8,7c-0.2,0.7-0.6,1.1-1.2,0.9C88,32.3,87.8,31.8,88,31
					c0.6-2.4,1.2-4.7,1.8-7.1c0.1-0.6,0.6-0.9,1.1-0.8C91.3,23.3,91.7,23.7,91.7,24.2z"/>
				<path class="st1" d="M88.9,32.8c-0.1,0-0.3,0-0.4-0.1c-0.3,0-0.5-0.2-0.7-0.4c-0.2-0.3-0.2-0.8-0.1-1.3l1.8-7.1
					c0.1-0.3,0.2-0.6,0.5-0.8c0.3-0.2,0.6-0.3,0.9-0.2l0.1,0c0.5,0.2,1,0.7,1,1.4c0,0.1,0,0.3-0.1,0.4c-0.3,1.2-0.6,2.3-0.9,3.5
					c-0.3,1.1-0.6,2.3-0.9,3.4c-0.2,0.5-0.4,0.9-0.7,1.1C89.2,32.7,89.1,32.8,88.9,32.8z M90.7,23.4c-0.1,0-0.2,0-0.3,0.1
					c-0.1,0.1-0.2,0.2-0.3,0.4l-1.8,7.1c-0.1,0.4-0.1,0.7,0,0.8c0.1,0.1,0.2,0.2,0.3,0.2c0.2,0.1,0.3,0.1,0.4,0
					c0.2-0.1,0.3-0.3,0.4-0.7c0.3-1.2,0.6-2.3,0.9-3.4c0.3-1.2,0.6-2.4,0.9-3.6l0-0.1l0.1-0.1l0-0.1C91.4,23.8,91.1,23.6,90.7,23.4
					C90.8,23.4,90.7,23.4,90.7,23.4z"/>
			</g>
			<g>
				<path class="st1" d="M89.8,5.5c-0.9,0-1.8,0-2.6,0c-0.7,0-1.1-0.4-1.1-1s0.4-0.9,1.1-0.9c1.8,0,3.6,0,5.3,0c0.7,0,1.1,0.4,1.1,1
					s-0.4,0.9-1.1,0.9C91.6,5.6,90.7,5.5,89.8,5.5z"/>
				<path class="st1" d="M91.6,5.9c-0.3,0-0.6,0-0.9,0c-0.3,0-0.6,0-0.9,0h-2.6c-0.9,0-1.4-0.5-1.4-1.3c0-0.8,0.5-1.2,1.4-1.2h5.3
					c0.9,0,1.4,0.5,1.4,1.3c0,0.8-0.5,1.2-1.4,1.2C92.2,5.9,91.9,5.9,91.6,5.9z M87.2,4c-0.8,0-0.8,0.4-0.8,0.6
					c0,0.6,0.5,0.7,0.8,0.7h2.6c0.3,0,0.6,0,0.9,0c0.6,0,1.2,0,1.8,0c0.8,0,0.8-0.4,0.8-0.6c0-0.6-0.5-0.7-0.8-0.7H87.2z"/>
			</g>
		</g>
	</g>
</g>
<g id="Capa_2_00000131336378097396752130000007273272815976479142_">
</g>
</svg>
