<?xml version="1.0" encoding="utf-8"?>
<!-- Generator: Adobe Illustrator 25.4.1, SVG Export Plug-In . SVG Version: 6.00 Build 0)  -->
<svg version="1.1" id="Capa_1" xmlns="http://www.w3.org/2000/svg" xmlns:xlink="http://www.w3.org/1999/xlink" x="0px" y="0px"
	 viewBox="0 0 200 147.68" style="enable-background:new 0 0 200 147.68;" xml:space="preserve">
<style type="text/css">
	.st0{fill:#FDC828;}
	.st1{fill:#5204AB;}
</style>
<g>
	<g>
		<path class="st0" d="M175.28,106.64V23.42c0-2.33-1.89-4.23-4.23-4.23c-2.33,0-4.23,1.89-4.23,4.23v83.22
			c-5.27,1.77-9.08,6.74-9.08,12.61c0,7.35,5.96,13.3,13.3,13.3c7.35,0,13.3-5.96,13.3-13.3
			C184.35,113.38,180.55,108.41,175.28,106.64z"/>
		<path class="st1" d="M187.74,95.07V16.55c0-4.43-1.72-8.59-4.85-11.7C179.76,1.72,175.61,0,171.19,0
			c-9.13,0-16.55,7.43-16.55,16.55v78.33c-7.79,5.37-12.53,14.29-12.53,23.84c0,15.96,12.99,28.95,28.95,28.95
			S200,134.69,200,118.73C200,109.31,195.36,100.46,187.74,95.07z M171.05,139.22c-11.3,0-20.5-9.2-20.5-20.5
			c0-7.36,3.98-14.2,10.39-17.84c1.32-0.75,2.14-2.15,2.14-3.67V16.55c0-4.47,3.63-8.1,8.1-8.1c2.16,0,4.2,0.84,5.73,2.38
			c1.53,1.52,2.37,3.56,2.37,5.72v80.82c0,1.5,0.8,2.89,2.09,3.65c6.27,3.67,10.17,10.45,10.17,17.71
			C191.55,130.03,182.35,139.22,171.05,139.22z"/>
	</g>
	<g>
		<rect x="76.78" y="126.59" class="st1" width="48.65" height="21.09"/>
		<g>
			<path class="st1" d="M110.51,3.68c-11.11,0-20.12,9.01-20.12,20.12s9.01,20.12,20.12,20.12s20.12-9.01,20.12-20.12
				S121.62,3.68,110.51,3.68z M110.51,30.26c-3.57,0-6.47-2.9-6.47-6.47s2.9-6.47,6.47-6.47c3.57,0,6.47,2.9,6.47,6.47
				S114.08,30.26,110.51,30.26z"/>
		</g>
		<g>
			<path class="st1" d="M73.84,126.59c-29.13,0-52.75-23.62-52.75-52.75c0-29.13,23.62-52.75,52.75-52.75
				c8.86,0,17.2,2.21,24.54,6.07l10.76-18.19C98.65,3.25,86.62,0,73.84,0C33.06,0,0,33.06,0,73.84c0,40.78,33.06,73.84,73.84,73.84
				c2.68,0,5.32-0.15,7.92-0.43v-20.66C79.01,126.59,76.54,126.59,73.84,126.59z"/>
		</g>
	</g>
</g>
</svg>
