<?xml version="1.0" encoding="utf-8"?>
<!-- Generator: Adobe Illustrator 25.4.1, SVG Export Plug-In . SVG Version: 6.00 Build 0)  -->
<svg version="1.1" id="Capa_1" xmlns="http://www.w3.org/2000/svg" xmlns:xlink="http://www.w3.org/1999/xlink" x="0px" y="0px"
	 viewBox="0 0 121.7 56.5" style="enable-background:new 0 0 121.7 56.5;" xml:space="preserve">
<style type="text/css">
	.st0{fill:#FFFFFF;}
	.st1{fill:#FDC828;}
</style>
<g id="Capa_1_00000079486790189349469570000008968040521833173903_">
	<g id="Layer_1">
		<g>
			<path class="st0" d="M58.8,56.5H14.1C6.3,56.5,0,50.2,0,42.4s6.3-14.1,14.1-14.1v-2.4c0-9.1,7.4-16.5,16.5-16.5
				c3.4,0,6.5,1,9.1,2.8C43.1,5,53.9,0,62.4,0l-3.5,9.4c-6.5,0-11.8,5.3-11.8,11.8v4.7h-9.4c0-3.9-3.2-7.1-7.1-7.1s-7.1,3.2-7.1,7.1
				v11.8h-9.4c-2.6,0-4.7,2.1-4.7,4.7c0,2.6,2.1,4.7,4.7,4.7h44.7C58.8,47.1,58.8,56.5,58.8,56.5z"/>
			<g id="SlzkUU.tif">
				<g>
					<path class="st1" d="M105.2,56.5c-7.8,0-15.6,0-23.4,0c-1-0.8-1.1-1.2-0.5-2.4c2-4.2,3.9-8.4,5.9-12.6c0.1-0.2,0.2-0.4,0.3-0.7
						c-0.4,0-0.6,0-0.9,0c-4.5,0-8.9,0-13.4,0c-4.4,0-7.9-3.5-7.9-7.9c0-8.3,0-16.7,0-25c0-4.4,3.5-7.9,7.9-7.9
						c13.5,0,27.1,0,40.6,0c3.3,0,5.7,1.6,7.1,4.5c0.4,0.7,0.5,1.6,0.8,2.4c0,9,0,18,0,27c0,0.1-0.1,0.1-0.1,0.2
						c-0.4,3.4-3.6,6.9-8.3,6.8c-4.3-0.1-8.6,0-13,0c-0.2,0-0.4,0-0.7,0c0.1,0.3,0.2,0.5,0.3,0.7c1.9,4.2,3.9,8.3,5.8,12.5
						C106.3,55.3,106.2,55.7,105.2,56.5z M93.4,38.1c5.8,0,11.6,0,17.4,0c1,0,2.1,0,3.1,0c3-0.2,5.1-2.3,5.1-5.3
						c0-8.2,0-16.4,0-24.6c0-3.2-2.2-5.4-5.4-5.4c-13.4,0-26.9,0-40.3,0c-3.2,0-5.4,2.3-5.4,5.4c0,8.2,0,16.4,0,24.6
						c0,0.8,0.2,1.7,0.5,2.4c1,2.1,2.7,3,5,3C80.1,38.1,86.8,38.1,93.4,38.1z M102.5,53.8c0-0.1,0-0.2-0.1-0.3
						c-1.9-4.1-3.8-8.2-5.7-12.3c-0.1-0.2-0.4-0.3-0.6-0.4c-1.8,0-3.5,0-5.3,0c-0.4,0-0.6,0.1-0.7,0.5c-1.8,4-3.7,8-5.6,12
						c-0.1,0.1-0.1,0.3-0.2,0.5C90.4,53.8,96.4,53.8,102.5,53.8z"/>
					<path class="st1" d="M81.9,12.3c-0.7,0-1.4,0-2-0.2c-1.6-0.4-2.6-2-2.4-3.7c0.2-1.6,1.5-2.9,3.1-3c1.7-0.1,3.3,0.9,3.6,2.6
						c0.3,1.4,0.3,2.7,0.5,4.1c0,0.2,0,0.3,0.1,0.6c0.3,0,0.5,0,0.8,0c6.4,0,12.7,0,19.1,0c0.6,0,1.2,0,1.4,0.6
						c0.2,0.3,0.3,0.8,0.2,1.2c-0.7,3.3-1.4,6.6-2.2,10c-0.2,1-0.6,1.3-1.7,1.3c-5.2,0-10.5,0-15.7,0c-0.2,0-0.5,0-0.8,0
						c0,0.5,0,1,0.1,1.5c0,0.1,0.2,0.3,0.4,0.3c0.1,0,0.2,0,0.3,0c5.3,0,10.6,0,15.9,0c0.4,0,0.7-0.1,1-0.5c0.7-0.9,1.5-1.7,2.2-2.6
						c0.6-0.7,1.4-0.8,2-0.2c0.6,0.5,0.6,1.3,0,2c-1,1.1-1.9,2.2-2.9,3.3c-0.4,0.4-0.8,0.6-1.4,0.6c-0.4,0-0.7,0-1.1,0
						c0.3,1.2,0,2.2-0.8,3.1c-0.7,0.7-1.5,1.1-2.5,1.1c-2.1,0-3.5-1.7-3.3-4.1c-1,0-2,0-3.1,0c0.3,1.2-0.1,2.3-0.9,3.1
						c-0.7,0.7-1.6,1-2.6,1c-2-0.1-3.4-1.9-3.1-4.2c-0.4,0-0.7,0-1,0c-0.9,0-1.4-0.5-1.5-1.4c-0.3-3.5-0.6-6.9-0.9-10.4
						c-0.2-2-0.3-4-0.5-6C81.9,12.3,81.9,12.2,81.9,12.3z M101.6,23c0.6-2.5,1.1-5.1,1.7-7.6c-6.1,0-12.2,0-18.4,0
						c0.2,2.6,0.4,5.1,0.7,7.6C90.9,23,96.2,23,101.6,23z M88.5,31c0.1,0.5,0.3,0.7,0.8,0.7c0.4,0,0.7-0.3,0.7-0.7
						c0-0.5-0.3-0.8-0.7-0.7C88.8,30.3,88.5,30.6,88.5,31z M80.9,9.6c0.4-0.1,0.7-0.3,0.7-0.8c0-0.4-0.3-0.7-0.7-0.7
						c-0.5,0-0.8,0.3-0.8,0.7C80.1,9.3,80.4,9.5,80.9,9.6z M98.3,31c0,0.5,0.3,0.7,0.8,0.7c0.4,0,0.7-0.3,0.7-0.7
						c0-0.5-0.3-0.8-0.7-0.8C98.6,30.3,98.4,30.5,98.3,31z"/>
				</g>
			</g>
		</g>
	</g>
</g>
<g id="Capa_2_00000005258377593352175170000006097886749746755968_">
</g>
</svg>
