<?xml version="1.0" encoding="utf-8"?>
<!-- Generator: Adobe Illustrator 25.4.1, SVG Export Plug-In . SVG Version: 6.00 Build 0)  -->
<svg version="1.1" id="Capa_1" xmlns="http://www.w3.org/2000/svg" xmlns:xlink="http://www.w3.org/1999/xlink" x="0px" y="0px"
	 viewBox="0 0 72.5 56.5" style="enable-background:new 0 0 72.5 56.5;" xml:space="preserve">
<style type="text/css">
	.st0{fill:#FDC828;}
	.st1{fill:#FFFFFF;}
</style>
<g>
	<path class="st0" d="M63,40.8V9c0-0.9-0.7-1.6-1.6-1.6c-0.9,0-1.6,0.7-1.6,1.6v31.8c-2,0.7-3.5,2.6-3.5,4.8c0,2.8,2.3,5.1,5.1,5.1
		c2.8,0,5.1-2.3,5.1-5.1C66.5,43.4,65,41.5,63,40.8z"/>
	<path class="st1" d="M67.8,36.4v-30c0-1.7-0.7-3.3-1.9-4.5C64.7,0.7,63.1,0,61.4,0c-3.5,0-6.3,2.8-6.3,6.3v30
		c-3,2.1-4.8,5.5-4.8,9.1c0,6.1,5,11.1,11.1,11.1s11.1-5,11.1-11.1C72.4,41.8,70.7,38.4,67.8,36.4z M61.4,53.3
		c-4.3,0-7.8-3.5-7.8-7.8c0-2.8,1.5-5.4,4-6.8c0.5-0.3,0.8-0.8,0.8-1.4V6.3c0-1.7,1.4-3.1,3.1-3.1c0.8,0,1.6,0.3,2.2,0.9
		c0.6,0.6,0.9,1.4,0.9,2.2v30.9c0,0.6,0.3,1.1,0.8,1.4c2.4,1.4,3.9,4,3.9,6.8C69.2,49.8,65.7,53.3,61.4,53.3z"/>
</g>
<g id="_x30_c4krU.tif_00000183230448600910063980000017054125414908297110_">
	<g>
		<path class="st1" d="M15.6,0c0.7,0.5,0.8,0.7,0.5,1.5c-0.5,2.1-0.9,4.3-0.5,6.5c0.3,1.8,0.9,3.3,2.7,4.1c0.8,0.4,1.7,0.7,2.6,0.5
			c0.6-0.1,0.9-0.5,1-1c0.3-1.1,0-2.2-0.4-3.2c-0.3-0.9-0.7-1.7-1-2.5c-0.3-0.8,0.2-1.5,1-1.3c3,0.6,5.4,2,6.7,4.9
			c0.7,1.7,0.7,3.5,0.3,5.3c-0.5,2.3-1.4,4.4-2.6,6.4c-0.3,0.5-0.5,1-0.6,1.6c-0.1,0.9,0.3,1.4,1.3,1.2c0.8-0.2,1.6-0.5,2.3-0.9
			c1.2-0.7,1.5-0.9,2.6,0.6c1.6,2.2,1.8,4.9,0.3,7.3c-0.7,1.2-1.7,2.3-2.6,3.5c0.2,0.3,0.4,0.8,0.7,1.3c1.4,3.1,0.9,6.1-0.8,8.9
			c-1.6,2.7-3.9,4.9-6.3,6.8c-2.2,1.7-4.4,3.3-6.7,4.9c-0.3,0.2-0.5,0.3-0.8,0.1c-3.6-2.4-7.1-5-10.2-8.2c-1.4-1.4-2.6-2.9-3.4-4.7
			c-1.3-2.9-1.4-5.8,0.3-8.7c0.2-0.3,0.2-0.6,0-0.9c-1.1-2.2-1.8-4.5-2-7c0-0.1-0.1-0.3-0.1-0.4c0-0.8,0-1.5,0-2.3
			c0-0.1,0.1-0.2,0.1-0.4c0.2-1,0.4-2,0.7-2.9c1.2-3.5,3.8-5.8,7.1-7.3c0.3-0.1,0.7-0.1,1,0.1c0.2,0.2,0.4,0.6,0.3,1
			c-0.1,0.8-0.3,1.5-0.4,2.3c-0.3,1.9-0.4,3.7,0,5.6c0.3,1.4,1,2.6,2.3,3.3c0.2,0.1,0.4,0.2,0.6,0.1c2.2-0.8,4-2.5,3.3-5.3
			c-0.4-1.7-1.3-3.1-2.3-4.5c-0.7-1-1.5-2-2.2-3.1C9.1,10.8,8.9,8.4,10,5.9c1.1-2.4,3-4.3,5-5.9C15.2,0,15.4,0,15.6,0z M15.7,35.5
			C15.7,35.5,15.7,35.5,15.7,35.5c-0.2-0.3-0.5-0.6-0.7-0.8c-1.4-1.5-3-2.4-5.1-2.5c-4-0.2-7.4,3.3-7.1,7.3c0.1,2.1,1,3.9,2.3,5.5
			c3,3.7,6.6,6.5,10.5,9.1c0.1,0.1,0.4,0.1,0.5,0c3.4-2.3,6.7-4.8,9.5-7.8c1.5-1.6,2.7-3.3,3.1-5.5c0.6-2.9-0.4-5.8-2.8-7.4
			c-2.4-1.7-5.6-1.7-8,0.1C17.1,34.1,16.5,34.8,15.7,35.5z"/>
		<path class="st1" d="M26.6,39.2c0-2.4-1.9-4.5-4.3-4.6c-0.1,0-0.1,0-0.2,0c-0.3,0-0.7-0.1-0.6-0.5c0-0.4,0.3-0.4,0.7-0.4
			c1.4,0.1,2.7,0.6,3.7,1.6c1.5,1.5,2,3.3,1.5,5.4c0,0.1,0,0.2-0.1,0.2c-0.2,0.1-0.4,0.2-0.5,0.4c-0.1-0.2-0.3-0.4-0.3-0.6
			C26.3,40.1,26.5,39.7,26.6,39.2z"/>
	</g>
</g>
<g id="GQMDDt.tif">
	<g>
		<path class="st1" d="M11.7,56.5c-0.3-0.3-0.6-0.6-0.7-1c-0.6-1.8-1.2-3.6-1.7-5.4c-1.8,0.4-3.6,0.8-5.3,1.2
			c-0.2,0-0.4,0.1-0.5,0.1c-0.4-0.1-0.8-0.2-1-0.4c-0.2-0.2-0.1-0.7-0.1-1c0-0.2,0.2-0.4,0.3-0.5c1.5-2.5,2.9-5,4.4-7.6
			C7,41.6,7,41.5,7.1,41.3c-5.1-5.2-7.5-11.5-7.1-18.7c0.4-6.5,3.1-12,7.9-16.3C17.1-2.2,31.4-2,40.5,6.3c9.8,9,10.8,24.9,0.7,35
			c0.9,1.6,1.8,3.2,2.7,4.8c0.7,1.2,1.4,2.4,2.1,3.6c0.3,0.4,0.4,0.9,0.1,1.3c-0.3,0.4-0.7,0.5-1.2,0.3c-1.8-0.4-3.6-0.8-5.4-1.2
			c-0.1,0-0.1,0-0.3,0c-0.6,1.8-1.1,3.6-1.7,5.4c-0.1,0.4-0.5,0.7-0.7,1c-0.2,0-0.4,0-0.7,0c-0.2-0.3-0.5-0.6-0.7-0.9
			c-1.5-2.5-2.9-5-4.4-7.5c-0.2-0.4-0.4-0.5-0.9-0.4c-3.9,1-7.8,0.9-11.7,0c-0.4-0.1-0.5,0-0.7,0.3c-1.5,2.5-2.9,5.1-4.4,7.6
			c-0.2,0.4-0.5,0.7-0.8,1C12.1,56.5,11.9,56.5,11.7,56.5z M24.1,46.2c12.1,0,22-9.7,22.1-22C46.3,12.1,36.6,2,24.1,2.1
			c-12.5,0-22,10.1-22.1,22.1C2,36.3,12,46.2,24.1,46.2z"/>
		<path class="st1" d="M24.2,3.9c10.7-0.1,20.2,8.6,20.2,20.2c0,11.2-9,20.2-20.2,20.2c-11.3,0-20.2-9.1-20.2-20.2
			C3.9,12.5,13.5,3.8,24.2,3.9z M24.1,42.3c10,0,18.1-8.1,18.2-18.1c0.1-10-8-18.2-18.1-18.2C14.2,5.9,6,14.1,6,24.1
			C6,34.1,14.1,42.3,24.1,42.3z"/>
		<path class="st1" d="M12.5,31c-0.4-1.2-0.8-2.2-1.2-3.1c-0.1-0.1-0.2-0.3-0.4-0.3c-0.4,0-0.9,0-1.3,0c-0.6,0-1-0.4-1-1
			c0-1.6,0-3.3,0-4.9c0-0.6,0.4-1,1-1c0.4,0,0.8,0,1.2,0c0.2,0,0.4-0.2,0.5-0.3c0.4-0.9,0.8-1.8,1.1-2.7c0.1-0.1,0-0.4-0.1-0.5
			c-0.3-0.3-0.6-0.6-0.9-0.9c-0.5-0.5-0.5-1,0-1.5c1.1-1.1,2.2-2.2,3.3-3.3c0.5-0.5,1-0.5,1.5,0c0.4,0.4,0.7,0.8,1,1.1
			c1.2-0.5,2.3-0.9,3.4-1.4c0-0.4,0-0.9,0-1.4c0-0.8,0.4-1.1,1.1-1.1c1.5,0,3.1,0,4.6,0c0.8,0,1.1,0.4,1.1,1.1c0,0.5,0,1,0,1.4
			c1.1,0.5,2.2,0.9,3.4,1.4c0.3-0.3,0.6-0.7,1-1.1c0.5-0.5,1-0.5,1.5,0c1.1,1.1,2.2,2.2,3.3,3.3c0.5,0.5,0.5,1,0,1.5
			c-0.2,0.3-0.5,0.5-0.7,0.7c-0.3,0.2-0.3,0.4-0.1,0.8c0.4,0.8,0.7,1.6,1,2.4c0.1,0.3,0.3,0.5,0.6,0.4c0.4,0,0.8,0,1.2,0
			c0.6,0,1,0.4,1,1c0,1.6,0,3.2,0,4.8c0,0.7-0.4,1-1.1,1.1c-0.5,0-1.1-0.2-1.5,0.1c-0.3,0.2-0.4,0.9-0.6,1.3c-0.2,0.5-0.4,1-0.7,1.5
			c-0.2,0.3-0.1,0.5,0.1,0.8c0.3,0.2,0.5,0.5,0.8,0.8c0.4,0.5,0.5,1,0,1.5c-1.1,1.1-2.2,2.3-3.4,3.4c-0.5,0.4-1.1,0.5-1.5,0
			c-0.8-1-1.5-1.1-2.6-0.4c-0.4,0.3-1,0.4-1.5,0.5c-0.3,0.1-0.4,0.3-0.4,0.6c0,0.4,0,0.7,0,1.1c0,0.7-0.4,1.1-1,1.1
			c-1.6,0-3.2,0-4.8,0c-0.7,0-1-0.4-1-1.1c0-0.4,0-0.7,0-1.1c0-0.4-0.1-0.5-0.5-0.7c-0.8-0.3-1.7-0.6-2.5-1
			c-0.3-0.1-0.5-0.1-0.7,0.1c-0.3,0.3-0.5,0.6-0.8,0.8c-0.5,0.4-1,0.5-1.5,0c-1.1-1.1-2.3-2.2-3.4-3.4c-0.5-0.5-0.5-1,0-1.5
			C11.8,31.6,12.2,31.3,12.5,31z M13.6,15.6c0.3,0.3,0.6,0.5,0.9,0.8c0.5,0.5,0.6,1,0.2,1.5c-0.8,1.2-1.3,2.5-1.6,3.9
			c-0.1,0.6-0.5,0.9-1.1,0.9c-0.3,0-0.7,0-1,0c-0.1,0-0.3,0.2-0.3,0.3c0,0.8,0,1.7,0,2.5c0.1,0,0.2,0,0.2,0c0.4,0,0.7,0,1.1,0
			c0.7,0,1,0.3,1.2,0.9c0.3,1.4,0.8,2.6,1.6,3.8c0.4,0.6,0.3,1.1-0.2,1.6c-0.3,0.3-0.6,0.5-0.8,0.7c0.7,0.7,1.4,1.4,2.1,2.1
			c0.2-0.3,0.5-0.6,0.8-0.9c0.5-0.5,0.9-0.5,1.5-0.2c1.2,0.8,2.5,1.3,3.9,1.6c0.6,0.1,0.9,0.5,0.9,1.2c0,0.4,0,0.8,0,1.2
			c1,0,1.9,0,2.8,0c0-0.4,0-0.8,0-1.2c0-0.7,0.3-1,0.9-1.2c1.4-0.3,2.7-0.8,3.9-1.6c0.6-0.4,1-0.3,1.5,0.2c0.3,0.3,0.6,0.6,0.8,0.9
			c0.7-0.7,1.4-1.4,2.1-2.1c-0.3-0.2-0.6-0.5-0.9-0.8c-0.4-0.5-0.5-0.9-0.2-1.5c0.8-1.2,1.3-2.5,1.6-3.9c0.1-0.6,0.5-0.9,1.2-0.9
			c0.4,0,0.8,0,1.3,0c0-0.5,0-1,0-1.5c0-1.2,0-1.2-1.2-1.3c-0.7,0-1.1-0.3-1.2-0.9c-0.3-1.4-0.8-2.7-1.6-3.9c-0.3-0.5-0.3-1,0.2-1.5
			c0.3-0.3,0.6-0.6,1-0.9c-0.7-0.6-1.2-1.2-1.8-1.7c-0.1-0.1-0.2-0.2-0.4-0.4c-0.3,0.3-0.5,0.7-0.8,1c-0.5,0.5-0.9,0.5-1.5,0.2
			c-1.2-0.8-2.5-1.3-3.9-1.6c-0.6-0.1-0.9-0.5-0.9-1.2c0-0.4,0-0.8,0-1.3c-1,0-1.9,0-2.7,0c0,0.1-0.1,0.1-0.1,0.1c0,0.4,0,0.8,0,1.2
			c0,0.6-0.3,1-0.9,1.1c-1.4,0.3-2.7,0.8-3.9,1.6c-0.6,0.4-1,0.3-1.5-0.2c-0.3-0.3-0.5-0.6-0.8-0.9C14.9,14.3,14.3,14.9,13.6,15.6z"
			/>
		<path class="st1" d="M15.5,24.2c0-4.7,3.8-8.6,8.5-8.7c4.8,0,8.7,3.8,8.7,8.6c0,4.7-3.8,8.6-8.6,8.7C19.5,32.8,15.5,29,15.5,24.2z
			 M24.1,30.7c3.6,0,6.6-2.9,6.6-6.6c0-3.6-2.9-6.6-6.5-6.6c-3.7,0-6.6,2.9-6.6,6.6C17.6,27.8,20.5,30.7,24.1,30.7z"/>
	</g>
</g>
</svg>
