<?xml version="1.0" encoding="utf-8"?>
<!-- Generator: Adobe Illustrator 25.4.1, SVG Export Plug-In . SVG Version: 6.00 Build 0)  -->
<svg version="1.1" id="Capa_1" xmlns="http://www.w3.org/2000/svg" xmlns:xlink="http://www.w3.org/1999/xlink" x="0px" y="0px"
	 viewBox="0 0 200 147.7" style="enable-background:new 0 0 200 147.7;" xml:space="preserve">
<style type="text/css">
	.st0{fill:#FDC828;}
	.st1{fill:#FFFFFF;}
</style>
<g>
	<g>
		<path class="st0" d="M175.3,106.6V23.4c0-2.3-1.9-4.2-4.2-4.2c-2.3,0-4.2,1.9-4.2,4.2v83.2c-5.3,1.8-9.1,6.7-9.1,12.6
			c0,7.3,6,13.3,13.3,13.3c7.4,0,13.3-6,13.3-13.3C184.4,113.4,180.6,108.4,175.3,106.6z"/>
		<path class="st1" d="M187.7,95.1V16.5c0-4.4-1.7-8.6-4.9-11.7c-3.1-3.1-7.3-4.8-11.7-4.8c-9.1,0-16.6,7.4-16.6,16.5v78.3
			c-7.8,5.4-12.5,14.3-12.5,23.8c0,16,13,28.9,28.9,28.9s28.9-13,28.9-28.9C200,109.3,195.4,100.5,187.7,95.1z M171.1,139.2
			c-11.3,0-20.5-9.2-20.5-20.5c0-7.4,4-14.2,10.4-17.8c1.3-0.8,2.1-2.2,2.1-3.7V16.5c0-4.5,3.6-8.1,8.1-8.1c2.2,0,4.2,0.8,5.7,2.4
			c1.5,1.5,2.4,3.6,2.4,5.7v80.8c0,1.5,0.8,2.9,2.1,3.7c6.3,3.7,10.2,10.4,10.2,17.7C191.6,130,182.4,139.2,171.1,139.2z"/>
	</g>
	<g>
		<rect x="76.8" y="126.6" class="st1" width="48.7" height="21.1"/>
		<g>
			<path class="st1" d="M110.5,3.7c-11.1,0-20.1,9-20.1,20.1s9,20.1,20.1,20.1s20.1-9,20.1-20.1S121.6,3.7,110.5,3.7z M110.5,30.3
				c-3.6,0-6.5-2.9-6.5-6.5s2.9-6.5,6.5-6.5s6.5,2.9,6.5,6.5S114.1,30.3,110.5,30.3z"/>
		</g>
		<g>
			<path class="st1" d="M73.8,126.6c-29.1,0-52.8-23.6-52.8-52.8s23.6-52.8,52.8-52.8c8.9,0,17.2,2.2,24.5,6.1L109.1,9
				C98.7,3.2,86.6,0,73.8,0C33.1,0,0,33.1,0,73.8s33.1,73.8,73.8,73.8c2.7,0,5.3-0.1,7.9-0.4v-20.7C79,126.6,76.5,126.6,73.8,126.6z
				"/>
		</g>
	</g>
</g>
</svg>
