<?xml version="1.0" encoding="utf-8"?>
<!-- Generator: Adobe Illustrator 25.4.1, SVG Export Plug-In . SVG Version: 6.00 Build 0)  -->
<svg version="1.1" id="Capa_1" xmlns="http://www.w3.org/2000/svg" xmlns:xlink="http://www.w3.org/1999/xlink" x="0px" y="0px"
	 viewBox="0 0 112 56.5" style="enable-background:new 0 0 112 56.5;" xml:space="preserve">
<style type="text/css">
	.st0{fill:#FFFFFF;}
	.st1{fill:#FDC828;}
</style>
<g id="Capa_1_00000129897653548478439980000008999570584690158754_">
	<g id="Layer_1">
		<g>
			<path class="st0" d="M58.8,56.5H14.1C6.3,56.5,0,50.2,0,42.4s6.3-14.1,14.1-14.1v-2.4c0-9.1,7.4-16.5,16.5-16.5
				c3.4,0,6.5,1,9.1,2.8C43.1,5,53.9,0,62.4,0l-3.5,9.4c-6.5,0-11.8,5.3-11.8,11.8v4.7h-9.4c0-3.9-3.2-7.1-7.1-7.1s-7.1,3.2-7.1,7.1
				v11.8h-9.4c-2.6,0-4.7,2.1-4.7,4.7c0,2.6,2.1,4.7,4.7,4.7h44.7C58.8,47.1,58.8,56.5,58.8,56.5z"/>
		</g>
	</g>
	<g id="_x31_QvU8V.tif">
		<g>
			<g>
				<path class="st1" d="M83.8,0.3c0.4,0,0.9,0,1.3,0c0.1,0,0.2,0.1,0.4,0.1c1.4,0.4,2.3,1.2,2.9,2.5c0.1,0.3,0.2,0.7,0.3,1h0.1
					c0.8-0.1,1.5-0.3,2.3-0.4C92,3.4,93,3.8,93.5,4.7c0.2,0.3,0.3,0.4,0.7,0.4c2,0,3.9,0,5.9,0c0.3,0,0.7,0,1,0.1
					C102.8,5.6,104,7,104,9c0,7.4,0,14.6,0,22c0,0.2,0,0.4,0,0.7c0.3-0.2,0.5-0.4,0.8-0.5c0.6-0.4,1.2-0.3,1.8,0.2
					c0.8,0.8,1.6,1.6,2.4,2.4c0.5,0.5,0.6,1.2,0.1,1.7c-0.9,0.9-0.7,1.8-0.2,2.8c0.1,0.1,0.1,0.2,0.1,0.3c0.1,0.4,0.4,0.6,0.8,0.6
					c0.9,0.1,1.7,0.3,2,1.3c0,1.3,0,2.5,0,3.7c-0.3,0.7-0.7,1.2-1.5,1.2c-0.9,0-1.3,0.5-1.5,1.3v0.1c-0.5,0.8-0.5,1.5,0.2,2.3
					c0.6,0.7,0.5,1.4-0.2,2c-0.7,0.7-1.4,1.4-2.1,2.1c-0.7,0.7-1.3,0.8-2,0.2c-0.7-0.6-1.4-0.6-2.2-0.2c-0.9,0.4-1.4,0.8-1.5,1.8
					c-0.1,0.8-0.6,1.3-1.5,1.3c-1,0-1.9,0-2.9,0c-1.2,0-1.6-0.3-1.8-1.5c-0.1-0.8-0.5-1.2-1.2-1.5c-0.9-0.4-1.7-0.5-2.5,0.2
					c-0.6,0.5-1.3,0.4-1.9-0.2c-0.3-0.3-0.7-0.6-1-1c-0.4-0.5-0.9-0.6-1.6-0.6c-6,0-12,0-18,0c-2.4,0-3.9-1.5-3.9-3.9
					c0-12.8,0-25.6,0-38.4c0-2.4,1.5-3.9,3.8-3.9c2,0,3.9,0,5.9,0c0.3,0,0.5,0,0.6-0.3c0.6-1.1,1.5-1.5,2.8-1.3
					c0.7,0.1,1.5,0.3,2.2,0.4c0.6-1.7,0.9-2.3,1.8-2.9C82.6,0.8,83.2,0.6,83.8,0.3z M69.4,9.6c0,12.5,0,25,0,37.4c6,0,11.9,0,17.9,0
					c-0.2-1-0.6-1.7-1.7-1.7c0,0,0,0-0.1,0c-0.9-0.2-1.3-0.7-1.3-1.6c0-1,0-2,0-2.9s0.4-1.5,1.4-1.6c0.9-0.1,1.5-0.5,1.6-1.4
					c0,0,0,0,0-0.1c0.5-0.8,0.4-1.5-0.2-2.2s-0.5-1.4,0.2-2.1c0.7-0.7,1.4-1.4,2.1-2.1c0.7-0.7,1.3-0.8,2.1-0.2
					c0.7,0.6,1.3,0.6,2.2,0.2c0.9-0.4,1.4-0.8,1.5-1.8c0.1-0.8,0.6-1.2,1.5-1.2s1.8,0,2.7,0c0.2,0,0.3,0,0.5,0c0-6.3,0-12.6,0-18.9
					c-1.9,0-3.6,0-5.5,0c-0.1,0-0.3,0.1-0.3,0.2c-0.2,0.5-0.6,0.6-1.1,0.6c-3.5,0-7.2,0-10.7,0c-2,0-3.8,0-5.8,0
					c-0.3,0-0.7-0.1-0.9-0.4s-0.4-0.4-0.7-0.4c-0.3,0-0.6,0-1,0C72.3,9.6,70.9,9.6,69.4,9.6z M88.4,34.7c0.2,0.4,0.5,0.8,0.8,1.2
					s0.3,0.7,0.1,1.2c-0.4,0.9-0.8,1.8-1.1,2.7c-0.2,0.4-0.4,0.6-0.9,0.7c-0.5,0.1-1,0.2-1.5,0.3c0,0.6,0,1.2,0,1.7
					c0,1.3,0,1.4,1.3,1.6c0.5,0.1,0.9,0.3,1.1,0.9c0.3,0.9,0.7,1.8,1.1,2.6c0.2,0.4,0.1,0.7-0.1,1.1c-0.3,0.4-0.6,0.8-0.8,1.1
					c0.8,0.8,1.5,1.5,2.2,2.2c0.3-0.2,0.7-0.5,1.1-0.8c0.4-0.3,0.7-0.3,1.2-0.1c0.9,0.4,1.8,0.8,2.7,1.1c0.4,0.2,0.6,0.4,0.7,0.9
					c0.1,0.5,0.2,1,0.3,1.5c1.1,0,2,0,3,0c0.1-0.5,0.2-0.9,0.3-1.3c0.1-0.5,0.3-0.8,0.8-1c0.9-0.3,1.7-0.7,2.6-1.1
					c0.5-0.2,0.9-0.2,1.3,0.1c0.4,0.3,0.8,0.5,1.1,0.7c0.8-0.8,1.5-1.5,2.2-2.2c-0.2-0.4-0.5-0.8-0.8-1.2s-0.3-0.7-0.1-1.1
					c0.2-0.6,0.5-1.1,0.7-1.7c0.3-1.2,1-2,2.3-2c0.1,0,0.2,0,0.2,0c0.1-0.1,0.2-0.2,0.2-0.3c0-0.9,0-1.9,0-2.8
					c-0.5-0.1-1-0.2-1.5-0.3c-0.4-0.1-0.7-0.3-0.9-0.7c-0.4-0.9-0.7-1.8-1.1-2.7c-0.2-0.4-0.1-0.8,0.1-1.2c0.3-0.4,0.5-0.8,0.7-1.1
					c-0.8-0.8-1.5-1.5-2.2-2.2c-0.3,0.2-0.7,0.4-1.1,0.7c-0.4,0.3-0.8,0.4-1.2,0.1c-0.5-0.3-1.1-0.5-1.6-0.7
					c-1.9-0.8-1.5-0.4-1.9-2.3v-0.1c-0.1-0.1-0.2-0.3-0.4-0.3c-0.9,0-1.8,0-2.8,0c-0.1,0.5-0.2,1-0.3,1.5c-0.1,0.3-0.3,0.6-0.6,0.8
					c-0.9,0.5-1.9,0.9-2.9,1.2c-0.3,0.1-0.7,0-1-0.1c-0.4-0.2-0.8-0.5-1.2-0.8C89.8,33.2,89.1,33.9,88.4,34.7z M75.1,6.7
					c-0.2,0-0.4,0-0.6,0c-1.9,0-3.7,0-5.6,0c-1.6,0-2.4,0.8-2.4,2.4c0,12.8,0,25.6,0,38.2c0,1.7,0.8,2.5,2.5,2.5
					c5.7,0,11.4,0,17.2,0c0.2,0,0.4,0,0.5,0c0.2-0.5,0.4-0.9,0.6-1.3c-0.2,0-0.4,0-0.6,0c-5.9,0-11.8,0-17.7,0
					c-0.8,0-1.1-0.2-1.1-1.1c0-12.8,0-25.6,0-38.3C67.9,8.3,68.1,8,69,8c1.9,0,3.7,0,5.6,0c0.2,0,0.4,0,0.6,0
					C75.1,7.6,75.1,7.2,75.1,6.7z M76.7,8.7c5.2,0,10.3,0,15.5,0c0-0.9,0-1.8,0-2.6s-0.4-1.2-1.2-1c-0.9,0.2-1.8,0.3-2.8,0.5
					c-1,0.2-1.3-0.1-1.3-1.1c0-1.5-1.1-2.7-2.6-2.7c-1.5,0-2.6,1.1-2.6,2.7c0,1-0.3,1.3-1.4,1.1c-0.9-0.2-1.8-0.3-2.8-0.5
					c-0.5-0.2-1,0.1-1,0.6C76.7,6.7,76.7,7.7,76.7,8.7z M93.8,8c0.3,0,0.5,0,0.7,0c1.8,0,3.6,0,5.4,0c1,0,1.2,0.2,1.2,1.2
					c0,6.9,0,13.9,0,20.7c0,1,0.3,1.3,1.3,1.4c0-0.2,0-0.4,0-0.6c0-7.2,0-14.4,0-21.6c0-0.2,0-0.4,0-0.6c-0.1-1-0.9-1.9-1.9-1.9
					c-2.2,0-4.4,0-6.6,0c0,0-0.1,0-0.1,0.1C93.8,7.2,93.8,7.5,93.8,8z"/>
				<path class="st1" d="M99.6,56.3h-2.9c-1.4,0-1.9-0.4-2.1-1.7c-0.1-0.6-0.3-1-1-1.2c-0.9-0.4-1.5-0.4-2.1,0.1
					c-0.7,0.6-1.6,0.5-2.3-0.2c-0.1-0.1-0.2-0.2-0.3-0.3c-0.2-0.2-0.5-0.5-0.7-0.7c-0.3-0.3-0.6-0.5-1.3-0.5h-18
					c-2.6,0-4.3-1.7-4.3-4.3V9.1c0-2.6,1.6-4.3,4.2-4.3h5.9c0.1,0,0.2,0,0.3,0l0-0.1c0.6-1.2,1.7-1.7,3.1-1.4c0.3,0,0.7,0.1,1.1,0.2
					c0.3,0.1,0.5,0.1,0.8,0.2c0.5-1.5,0.9-2.1,1.8-2.8c0.3-0.2,0.6-0.3,0.9-0.4C83,0.3,83.3,0.2,83.6,0l0.1,0H85
					c0.1,0,0.2,0,0.3,0.1c0.1,0,0.1,0,0.1,0l0.1,0c1.4,0.4,2.4,1.2,3.1,2.6c0.1,0.2,0.1,0.4,0.2,0.5c0,0.1,0,0.2,0.1,0.2
					c0.3,0,0.6-0.1,0.9-0.2c0.4-0.1,0.8-0.2,1.2-0.2c1.3-0.1,2.4,0.4,2.9,1.5c0.1,0.2,0.1,0.2,0.4,0.2h5.9c0.3,0,0.7,0,1.1,0.1
					c1.9,0.4,3.2,2,3.2,4v22.1c0.1-0.1,0.2-0.1,0.3-0.2c0.5-0.3,1.2-0.5,2.1,0.2l2.4,2.4c0.6,0.6,0.7,1.5,0.1,2.1
					c-0.7,0.7-0.6,1.4-0.2,2.3c0.2,0.2,0.2,0.4,0.2,0.5c0,0.2,0.2,0.3,0.5,0.3c0.9,0.1,1.9,0.3,2.3,1.5l0,0.1l0,3.9
					c-0.3,0.6-0.7,1.4-1.8,1.4c-0.7,0-1,0.3-1.2,1l0,0.1l0,0.1c-0.4,0.7-0.4,1.2,0.2,1.9c0.7,0.8,0.6,1.7-0.2,2.4l-2,2
					c-0.8,0.8-1.6,0.9-2.4,0.2c-0.5-0.5-1.1-0.5-1.8-0.2c-0.8,0.4-1.2,0.7-1.3,1.5C101.3,55.7,100.6,56.3,99.6,56.3z M92.6,52.4
					c0.5,0,0.9,0.2,1.3,0.3c0.9,0.4,1.3,0.9,1.4,1.7c0.2,1,0.4,1.2,1.5,1.2h2.9c0.7,0,1.1-0.3,1.2-1c0.1-1.1,0.7-1.6,1.7-2
					c0.9-0.5,1.8-0.4,2.5,0.2c0.5,0.4,0.9,0.5,1.5-0.2l2.1-2.1c0.6-0.5,0.6-1,0.2-1.5c-0.7-0.8-0.8-1.6-0.3-2.6v0
					c0.3-1.1,0.8-1.6,1.8-1.6c0.5,0,0.9-0.3,1.2-0.9v-3.6c-0.2-0.7-0.8-0.9-1.7-1c0,0,0,0,0,0c-0.5,0-0.9-0.3-1.1-0.8l0.3-0.2
					l-0.3,0.1l-0.1-0.1c-0.5-0.9-0.8-2.1,0.3-3.1c0.4-0.4,0.2-0.9-0.1-1.2l-2.4-2.4c-0.6-0.5-1.1-0.3-1.4-0.2l-0.1,0
					c-0.2,0.1-0.3,0.1-0.5,0.3c-0.1,0.1-0.2,0.1-0.3,0.2l-0.5,0.3V9c0-1.8-1-3-2.7-3.4c-0.3-0.1-0.6-0.1-0.9-0.1h-5.9
					c-0.5,0-0.7-0.2-1-0.5C92.8,4.1,92,3.7,91,3.8c-0.4,0-0.7,0.1-1.1,0.2c-0.4,0.1-0.8,0.1-1.2,0.2l-0.4,0L88.3,4
					c0-0.2-0.1-0.3-0.2-0.5C88.1,3.3,88,3.1,88,3c-0.5-1.2-1.3-1.9-2.6-2.2c-0.2,0-0.3-0.1-0.3-0.1l-1.2,0C83.6,0.8,83.3,0.9,83,1
					c-0.3,0.1-0.6,0.2-0.9,0.4c-0.8,0.5-1,1-1.6,2.7l-0.1,0.2l-0.3,0c-0.3,0-0.7-0.1-1.1-0.2C78.7,4,78.4,3.9,78,3.9
					C76.9,3.7,76.1,4,75.6,5c-0.1,0.5-0.6,0.5-0.9,0.5h-5.9c-2.2,0-3.5,1.4-3.5,3.6v38.4c0,2.2,1.4,3.6,3.6,3.6h18
					c0.8,0,1.4,0.1,1.8,0.7c0.2,0.3,0.4,0.5,0.6,0.7c0.1,0.1,0.2,0.2,0.3,0.3c0.3,0.3,0.9,0.7,1.4,0.2
					C91.6,52.5,92.1,52.4,92.6,52.4z M99.8,54.6h-3.6l-0.3-1.7c-0.1-0.4-0.2-0.5-0.5-0.7c-0.8-0.3-1.7-0.7-2.6-1.1
					c-0.4-0.2-0.6-0.2-0.9,0c-0.4,0.3-0.8,0.6-1.1,0.8l-0.2,0.1L88,49.6l0.1-0.2c0.2-0.3,0.5-0.7,0.8-1.1c0.2-0.4,0.2-0.5,0.1-0.8
					c-0.5-0.9-0.8-1.8-1.1-2.6c-0.1-0.5-0.4-0.6-0.8-0.7c-1.4-0.2-1.5-0.5-1.5-1.9v-1.9l1.7-0.3c0.4-0.1,0.5-0.2,0.7-0.5
					c0.3-0.9,0.7-1.8,1.1-2.6c0.2-0.4,0.2-0.6-0.1-0.9c-0.3-0.4-0.6-0.8-0.8-1.2L88,34.7l0.1-0.2c0.7-0.8,1.4-1.5,2.2-2.2l0.2-0.2
					l0.2,0.2c0.4,0.3,0.8,0.6,1.1,0.8c0.4,0.1,0.6,0.1,0.7,0.1c1-0.3,2-0.7,2.8-1.2c0.2-0.1,0.4-0.3,0.4-0.6l0.3-1.7h3
					c0.3,0,0.5,0.2,0.6,0.3l0.1,0.1l0,0.3c0.1,0.2,0.1,0.5,0.1,0.7c0.1,0.7,0.1,0.7,1,1.1c0.2,0.1,0.4,0.1,0.6,0.2l0.3,0.1
					c0.4,0.2,0.9,0.3,1.3,0.6c0.2,0.1,0.4,0.2,0.8-0.1c0.3-0.2,0.5-0.3,0.7-0.5c0.1-0.1,0.2-0.1,0.4-0.2l0.2-0.1l2.5,2.5l-0.1,0.2
					c-0.1,0.1-0.1,0.2-0.2,0.4c-0.1,0.2-0.3,0.5-0.5,0.7c-0.2,0.3-0.2,0.6-0.1,0.8c0.2,0.5,0.4,0.9,0.5,1.3c0.2,0.4,0.3,0.9,0.5,1.3
					c0.1,0.3,0.3,0.4,0.7,0.5l1.7,0.3v3c0,0.2-0.2,0.4-0.3,0.5L110,44l-0.3,0c-1,0-1.7,0.6-2,1.7c-0.1,0.3-0.2,0.6-0.4,0.9
					c-0.1,0.3-0.2,0.5-0.3,0.8c-0.2,0.4-0.2,0.5,0,0.8c0.3,0.4,0.6,0.8,0.8,1.2l0.1,0.2l-2.5,2.5l-0.2-0.1c-0.1-0.1-0.2-0.1-0.4-0.2
					c-0.2-0.1-0.5-0.3-0.7-0.5c-0.3-0.2-0.5-0.2-1-0.1l-0.6,0.3c-0.7,0.3-1.3,0.6-2,0.8c-0.3,0.1-0.5,0.3-0.6,0.7
					c-0.1,0.4-0.2,0.8-0.3,1.3L99.8,54.6z M96.7,54h2.5c0.1-0.4,0.2-0.7,0.2-1c0.1-0.6,0.4-1,1-1.2c0.7-0.2,1.3-0.5,1.9-0.8l0.6-0.3
					c0.4-0.2,1-0.3,1.6,0.1c0.2,0.2,0.5,0.3,0.7,0.4c0.1,0,0.1,0.1,0.2,0.1l1.8-1.8c-0.2-0.3-0.4-0.6-0.6-0.9
					c-0.4-0.5-0.4-0.9-0.1-1.4c0.1-0.3,0.2-0.5,0.3-0.8c0.1-0.3,0.2-0.5,0.3-0.8c0.4-1.4,1.2-2.2,2.6-2.2h0.1c0,0,0,0,0,0l0-2.4
					l-1.2-0.2c-0.5-0.1-0.9-0.4-1.1-0.9c-0.2-0.5-0.4-0.9-0.6-1.4c-0.2-0.4-0.3-0.9-0.5-1.3c-0.3-0.6-0.1-1.1,0.1-1.5
					c0.2-0.3,0.3-0.5,0.5-0.7c0-0.1,0.1-0.1,0.1-0.2l-1.8-1.8c-0.1,0-0.1,0.1-0.2,0.1c-0.2,0.1-0.4,0.3-0.7,0.4
					c-0.7,0.5-1.2,0.3-1.6,0.1c-0.3-0.2-0.8-0.4-1.2-0.5l-0.3-0.1c-0.2-0.1-0.4-0.2-0.6-0.2c-1.1-0.4-1.2-0.5-1.3-1.5
					c0-0.2-0.1-0.4-0.1-0.7l0,0c0,0,0,0,0,0c0,0-0.1-0.1-0.1-0.1l-2.5,0l-0.2,1.2c-0.1,0.4-0.4,0.8-0.7,1c-0.9,0.5-1.9,0.9-2.9,1.2
					c-0.3,0.1-0.7,0.1-1.2-0.1c-0.4-0.2-0.7-0.4-1.1-0.7c-0.6,0.6-1.2,1.2-1.8,1.8c0.2,0.3,0.4,0.6,0.6,0.9c0.4,0.5,0.4,1,0.1,1.5
					c-0.4,0.9-0.8,1.8-1.1,2.6c-0.2,0.5-0.5,0.8-1.1,0.9L86.1,41v1.4c0,1.1,0,1.1,1,1.3c0.5,0.1,1.1,0.3,1.3,1.1
					c0.3,0.8,0.6,1.6,1.1,2.5c0.3,0.5,0.1,1-0.1,1.4l-0.1,0.1c-0.2,0.3-0.4,0.6-0.6,0.8l1.8,1.8c0.3-0.2,0.6-0.4,0.9-0.6
					c0.5-0.4,1-0.3,1.5-0.1c0.9,0.4,1.8,0.8,2.6,1.1c0.5,0.2,0.8,0.5,0.9,1.1L96.7,54z M86.9,50.1H69c-1.8,0-2.8-0.9-2.8-2.8V9.1
					c0-1.8,0.9-2.7,2.7-2.7h6.5v0.3c0,0.5,0,0.8,0.1,1.2l0.1,0.4H69c-0.7,0-0.8,0.1-0.8,0.8v38.3c0,0.7,0.1,0.8,0.8,0.8h18.8
					l-0.2,0.5c-0.2,0.4-0.4,0.8-0.6,1.3L86.9,50.1z M68.9,7c-1.4,0-2,0.6-2,2v38.2c0,1.5,0.6,2.1,2.1,2.1h17.5
					c0.1-0.2,0.2-0.4,0.3-0.6H69c-0.8,0-1.4-0.2-1.4-1.4V9.1c0-0.8,0.2-1.4,1.4-1.4h5.8c0-0.2,0-0.4,0-0.6H68.9z M87.7,47.2H69.1
					v-38h5.5c0.4,0,0.7,0.2,1,0.5C75.7,10,76,10,76.2,10h16.5c0.5,0,0.7-0.1,0.8-0.4c0.1-0.3,0.4-0.4,0.6-0.4h5.8v19.5h-3.5
					c-0.7,0-1.1,0.3-1.2,0.9c-0.1,1.1-0.7,1.6-1.7,2c-0.9,0.4-1.6,0.5-2.5-0.2c-0.6-0.5-1-0.4-1.6,0.2l-2.1,2.1
					c-0.8,0.8-0.5,1.3-0.2,1.6c0.7,0.8,0.8,1.6,0.3,2.5v0c-0.1,1-0.7,1.6-1.9,1.7c-0.8,0.1-1.1,0.4-1.1,1.3v2.9c0,0.7,0.3,1.1,1,1.3
					l0,0c1.4,0,1.8,1.1,2,1.9L87.7,47.2z M69.7,46.6h17.2c-0.2-0.7-0.6-1-1.3-1h-0.1c-1.1-0.2-1.6-0.9-1.6-1.9v-2.9
					c0-1.2,0.5-1.8,1.7-1.9c0.8-0.1,1.2-0.4,1.3-1.1l0-0.2l0-0.1c0.4-0.6,0.4-1.2-0.2-1.8c-0.5-0.6-0.8-1.4,0.2-2.5l2.1-2.1
					c0.8-0.8,1.6-0.9,2.5-0.2c0.6,0.5,1,0.5,1.8,0.2c0.8-0.4,1.2-0.7,1.3-1.5c0.1-0.7,0.5-1.5,1.8-1.5h2.8V9.9h-5.2
					c-0.3,0.7-0.9,0.8-1.4,0.8H76.2c-0.2,0-0.8,0-1.2-0.5c-0.1-0.2-0.2-0.3-0.4-0.3h-4.9V46.6z M102.7,31.6l-0.4,0
					c-1.2-0.1-1.6-0.6-1.6-1.7V9.2c0-0.8-0.1-0.9-0.9-0.9h-6.4V6.7c0-0.3,0.2-0.4,0.4-0.4h6.6c1.1,0,2.1,0.9,2.2,2.2l0,0.6V31.6z
					 M94.1,7.7h5.8c1.2,0,1.5,0.3,1.5,1.5v20.7c0,0.7,0.1,0.9,0.6,1V8.5c-0.1-0.8-0.8-1.5-1.5-1.5h-6.4V7.7z M92.5,9H76.4V8.7
					c0-1,0-2,0.1-3c0-0.3,0.2-0.6,0.4-0.8c0.3-0.2,0.7-0.2,1-0.1C78.3,4.9,78.7,5,79.1,5c0.5,0.1,1,0.2,1.5,0.3
					c0.4,0.1,0.7,0.1,0.8,0c0.1-0.1,0.2-0.3,0.2-0.7c0-1.7,1.2-3,2.9-3c1.6,0,2.9,1.3,2.9,3c0,0.4,0.1,0.7,0.2,0.7
					c0.1,0.1,0.4,0.1,0.7,0c0.5-0.1,0.9-0.2,1.3-0.2C90,5,90.5,4.9,91,4.8c0.5-0.1,0.8-0.1,1.1,0.2c0.2,0.2,0.4,0.5,0.4,1.1V9z
					 M77,8.4h14.9V6.1c0-0.2,0-0.5-0.2-0.6c-0.1-0.1-0.4-0.1-0.6,0c-0.5,0.1-1,0.2-1.5,0.3c-0.4,0.1-0.8,0.1-1.3,0.2
					c-0.4,0.1-0.9,0.1-1.3-0.2c-0.4-0.3-0.4-0.8-0.4-1.2c0-1.3-1-2.3-2.2-2.3c-1.3,0-2.2,1-2.2,2.3c0,0.4,0,0.9-0.4,1.2
					c-0.4,0.3-0.9,0.2-1.4,0.2c-0.5-0.1-1-0.2-1.4-0.3c-0.4-0.1-0.9-0.1-1.3-0.2c-0.2-0.1-0.4-0.1-0.5,0c-0.1,0-0.1,0.1-0.1,0.3
					C77,6.6,77,7.5,77,8.4z"/>
			</g>
			<path class="st1" d="M81.1,28.2c0,1,0,2,0,2.9c0,1.1-0.6,1.7-1.6,1.7c-2.1,0-4,0-6.1,0c-1,0-1.6-0.6-1.6-1.7c0-2,0-3.9,0-5.9
				c0-1.1,0.6-1.7,1.7-1.7c2,0,4,0,6,0c1.1,0,1.6,0.7,1.7,1.7C81.2,26.3,81.1,27.3,81.1,28.2z M73.4,31.3c2.1,0,4.1,0,6.1,0
				c0-2.1,0-4,0-6.1c-2.1,0-4,0-6.1,0C73.4,27.3,73.4,29.2,73.4,31.3z"/>
			<path class="st1" d="M71.9,39c0-1,0-2,0-2.9s0.6-1.7,1.6-1.7c2.1,0,4,0,6.1,0c1,0,1.6,0.7,1.6,1.7c0,2,0,4,0,6
				c0,1-0.6,1.6-1.6,1.6c-2.1,0-4,0-6.1,0c-1,0-1.6-0.6-1.6-1.6V42C71.9,40.9,71.9,39.9,71.9,39z M73.4,35.9c0,2.1,0,4,0,6.1
				c2.1,0,4,0,6.1,0c0-2.1,0-4.1,0-6.1C77.6,35.9,75.5,35.9,73.4,35.9z"/>
			<path class="st1" d="M71.9,17.4c0-1,0-2,0-2.9s0.6-1.7,1.6-1.7c2.1,0,4,0,6.1,0c1,0,1.6,0.7,1.6,1.7c0,2,0,3.9,0,5.9
				c0,1.1-0.6,1.7-1.6,1.7c-2.1,0-4,0-6.1,0c-1,0-1.6-0.7-1.6-1.7S71.9,18.4,71.9,17.4z M73.4,14.4c0,2.1,0,4.1,0,6.1
				c2.1,0,4,0,6.1,0c0-2.1,0-4,0-6.1C77.6,14.4,75.5,14.4,73.4,14.4z"/>
			<g>
				<path class="st1" d="M89.6,16.1c-2,0-3.9,0-5.8,0c-0.2,0-0.4,0-0.6-0.1c-0.4-0.1-0.6-0.4-0.6-0.8s0.3-0.6,0.7-0.7
					c0.1,0,0.3,0,0.4,0c3.9,0,7.9,0,11.8,0c0.2,0,0.4-0.1,0.5,0c0.2,0.2,0.6,0.4,0.6,0.7c0,0.2-0.2,0.6-0.4,0.7
					C96,16,95.7,16,95.5,16C93.5,16.1,91.5,16.1,89.6,16.1z"/>
				<path class="st1" d="M89.6,16.5h-5.8c-0.2,0-0.5,0-0.7-0.1c-0.5-0.1-0.8-0.5-0.8-1.1c0-0.3,0.2-0.8,0.9-1l0.5,0h11.8
					c0.1,0,0.1,0,0.1,0c0.2,0,0.4-0.1,0.6,0.1c0,0,0.1,0.1,0.2,0.1c0.2,0.2,0.5,0.4,0.5,0.8c0,0.3-0.3,0.8-0.6,1
					c-0.3,0.1-0.6,0.1-0.8,0.1C93.5,16.5,91.5,16.5,89.6,16.5z M83.3,14.9c-0.4,0.1-0.4,0.3-0.4,0.4c0,0.3,0.1,0.4,0.3,0.5
					c0.2,0.1,0.3,0.1,0.5,0.1h5.8c1.9,0,3.9,0,5.9-0.1c0.2,0,0.4,0,0.6-0.1c0.1,0,0.2-0.3,0.2-0.4c0-0.1-0.2-0.2-0.3-0.3
					c-0.1,0-0.1-0.1-0.2-0.1c0,0,0,0-0.1,0c-0.1,0-0.2,0-0.3,0H83.3z M95.7,14.8C95.7,14.8,95.7,14.8,95.7,14.8
					C95.7,14.8,95.7,14.8,95.7,14.8z"/>
			</g>
			<g>
				<path class="st1" d="M89.6,20.3c-2,0-4,0-6,0c-0.7,0-1-0.3-1-0.8s0.3-0.8,1-0.8c4,0,8,0,12,0c0.8,0,1.2,0.5,0.9,1.1
					c-0.2,0.4-0.5,0.5-0.9,0.5C93.6,20.3,91.6,20.3,89.6,20.3z"/>
				<path class="st1" d="M95.6,20.6h-12c-1.2,0-1.3-0.8-1.3-1.1s0.1-1.1,1.3-1.1h12c0.5,0,1,0.2,1.2,0.5c0.2,0.3,0.2,0.7,0,1
					C96.4,20.5,95.9,20.6,95.6,20.6z M83.6,19c-0.7,0-0.7,0.3-0.7,0.5s0,0.5,0.7,0.5h12c0.3,0,0.5-0.1,0.6-0.3
					c0.1-0.1,0.1-0.3,0-0.4c-0.1-0.1-0.3-0.2-0.6-0.2H83.6z"/>
			</g>
			<g>
				<path class="st1" d="M90.5,42.1c0-4.1,3.3-7.4,7.4-7.4c4,0,7.4,3.3,7.4,7.4s-3.3,7.4-7.4,7.4C93.9,49.6,90.5,46.2,90.5,42.1z
					 M92.1,42.2c0,3.2,2.7,5.8,5.9,5.8c3.1,0,5.8-2.7,5.8-5.8c0-3.2-2.7-5.9-5.9-5.8C94.7,36.4,92.1,38.9,92.1,42.2z"/>
				<path class="st1" d="M97.7,49.8c-1.9,0-3.8-0.8-5.2-2.1c-1.5-1.5-2.3-3.4-2.3-5.6c0-4.2,3.5-7.7,7.7-7.7c4.2,0,7.7,3.5,7.7,7.7
					s-3.5,7.7-7.7,7.7C97.9,49.8,97.8,49.8,97.7,49.8z M97.9,35c-3.9,0-7.1,3.2-7.1,7.1c0,1.9,0.8,3.8,2.1,5.1
					c1.3,1.3,3.1,2,4.9,1.9c3.8,0,7.1-3.2,7.1-7.1S101.7,35,97.9,35z M98,48.3c-3.4,0-6.2-2.7-6.2-6.1c0-3.4,2.7-6.1,6.1-6.1
					c1.6,0,3.2,0.6,4.3,1.7c1.2,1.2,1.9,2.7,1.9,4.4C104.1,45.5,101.3,48.3,98,48.3z M98.1,36.7c-0.1,0-0.1,0-0.2,0
					c-3.1,0-5.5,2.4-5.5,5.5c0,3,2.5,5.5,5.6,5.5c3,0,5.5-2.5,5.5-5.5c0-1.5-0.6-2.9-1.7-4C100.8,37.2,99.5,36.7,98.1,36.7z"/>
			</g>
			<g>
				<path class="st1" d="M84.5,5.3c-0.6,0-1-0.5-1-1.1s0.5-1,1.1-1s1,0.5,0.9,1.1C85.4,4.9,85,5.3,84.5,5.3z"/>
				<path class="st1" d="M84.5,5.7c-0.7,0-1.3-0.6-1.3-1.4c0-0.7,0.6-1.3,1.4-1.3c0.4,0,0.7,0.1,0.9,0.4c0.2,0.3,0.3,0.7,0.3,1
					C85.8,5.1,85.2,5.7,84.5,5.7z M84.6,3.6c-0.4,0-0.8,0.2-0.8,0.7C83.8,4.6,84,5,84.5,5c0.4,0,0.7-0.2,0.7-0.7
					c0-0.3,0-0.4-0.1-0.6C84.9,3.7,84.7,3.6,84.6,3.6z"/>
			</g>
			<path class="st1" d="M75.9,28.3c0.5-0.5,1-1,1.5-1.6c0.1-0.1,0.3-0.3,0.4-0.4c0.4-0.3,0.9-0.4,1.1,0c0.3,0.4,0.3,0.8,0,1.1
				c-0.9,0.9-1.7,1.8-2.6,2.6c-0.4,0.4-0.9,0.3-1.2-0.2c-0.3-0.5-0.6-1-0.9-1.5c-0.2-0.4-0.1-0.8,0.3-1.1c0.4-0.2,0.8-0.1,1.1,0.3
				C75.6,27.8,75.7,28,75.9,28.3z"/>
			<path class="st1" d="M75.9,39.1c0.6-0.6,1.2-1.2,1.8-1.8c0.5-0.5,0.9-0.5,1.3-0.2c0.4,0.4,0.3,0.8-0.2,1.3
				c-0.8,0.8-1.6,1.6-2.4,2.4c-0.6,0.6-1.1,0.5-1.5-0.2c-0.3-0.4-0.5-0.9-0.8-1.4c-0.2-0.4-0.1-0.8,0.3-1.1c0.4-0.3,0.8-0.1,1.1,0.3
				C75.6,38.7,75.7,38.9,75.9,39.1z"/>
			<path class="st1" d="M75.8,17.5c0.6-0.7,1.2-1.3,1.9-1.9c0.4-0.4,0.9-0.4,1.2,0c0.3,0.4,0.3,0.8,0,1.1c-0.9,0.9-1.7,1.8-2.6,2.6
				c-0.4,0.4-1,0.3-1.3-0.2s-0.6-1-0.8-1.5c-0.2-0.5-0.1-0.9,0.3-1.1c0.4-0.2,0.8-0.1,1.1,0.4C75.6,17,75.7,17.2,75.8,17.5z"/>
		</g>
	</g>
</g>
<g id="Capa_2_00000015317667797206270580000017845392228036848512_">
</g>
</svg>
