<?xml version="1.0" encoding="utf-8"?>
<!-- Generator: Adobe Illustrator 25.4.1, SVG Export Plug-In . SVG Version: 6.00 Build 0)  -->
<svg version="1.1" xmlns="http://www.w3.org/2000/svg" xmlns:xlink="http://www.w3.org/1999/xlink" x="0px" y="0px"
	 viewBox="0 0 116.6 115.27" style="enable-background:new 0 0 116.6 115.27;" xml:space="preserve">
<style type="text/css">
	.st0{fill:#FDC828;}
	.st1{fill:#FFFFFF;}
	.st2{fill:#5204AB;}
</style>
<g id="Layer_1">
	<g id="_x32_7AtOk.tif">
		<g>
			<path class="st0" d="M70.08,63.84c-0.35,0.48-0.84,0.62-1.43,0.64c-4.28,0.12-8.58,0.28-12.86,0.38
				c-0.51,0.01-0.74,0.22-0.96,0.64c-1.87,3.52-3.76,7.02-5.65,10.53c-0.13,0.25-0.27,0.49-0.44,0.7c-0.41,0.46-0.94,0.47-1.38,0.02
				c-0.19-0.2-0.33-0.44-0.47-0.68c-2.71-4.52-5.41-9.03-8.1-13.56c-0.27-0.45-0.53-0.57-1.07-0.54c-1.83,0.07-3.65,0.07-5.48,0.03
				c-0.53-0.01-0.8,0.14-1.06,0.59c-2.64,4.46-5.31,8.91-7.98,13.36c-0.12,0.2-0.22,0.39-0.35,0.57c-0.5,0.64-1.23,0.63-1.67-0.05
				c-0.31-0.48-0.56-1-0.83-1.51c-1.71-3.18-3.43-6.36-5.11-9.54c-0.25-0.46-0.53-0.64-1.04-0.65c-4.18-0.1-8.38-0.23-12.56-0.35
				c-0.29-0.01-0.61-0.02-0.89-0.1c-0.63-0.17-0.87-0.67-0.65-1.27c0.1-0.26,0.25-0.49,0.38-0.73c2.69-4.5,5.37-9,8.08-13.48
				c0.28-0.46,0.31-0.81,0.01-1.28c-2.7-4.24-4.24-8.9-4.64-13.91C3.4,27.08,4.79,20.9,8.17,15.21c2.91-4.9,6.9-8.71,11.89-11.44
				c3.33-1.82,6.89-2.98,10.66-3.46c0.69-0.09,1.39-0.2,2.07-0.3c1.36,0,2.71,0,4.07,0c0.72,0.1,1.43,0.21,2.15,0.3
				c4.8,0.63,9.22,2.31,13.22,5.02c5.42,3.68,9.32,8.62,11.65,14.75c1.93,5.07,2.46,10.31,1.65,15.68
				c-0.63,4.14-2.03,8.01-4.24,11.55c-0.28,0.46-0.23,0.78,0.04,1.21c2.95,4.89,5.87,9.8,8.8,14.71
				C70.08,63.44,70.08,63.64,70.08,63.84z M34.8,1.95C18.81,2.01,5.73,14.75,5.73,31.06c0,16.29,12.97,29.11,29.12,29.14
				c16.09,0.03,29.17-13.15,29.08-29.19C63.84,14.89,50.83,1.92,34.8,1.95z M47.99,74.17c1.88-3.5,3.7-6.87,5.49-10.25
				c0.36-0.69,0.84-0.97,1.6-0.98c2.33-0.04,4.67-0.11,6.99-0.18c1.74-0.05,3.49-0.12,5.36-0.19c-2.6-4.34-5.14-8.59-7.73-12.92
				c-4.94,6.4-11.31,10.39-19.23,11.97C43,65.84,45.46,69.93,47.99,74.17z M2.62,62.49c0.36,0.02,0.58,0.04,0.81,0.05
				c3.83,0.13,7.66,0.28,11.5,0.35c0.84,0.02,1.32,0.35,1.7,1.07c1.66,3.14,3.35,6.28,5.03,9.4c0.11,0.21,0.25,0.4,0.42,0.7
				c2.49-4.16,4.92-8.22,7.42-12.39c-7.97-1.49-14.37-5.43-19.36-11.76C7.61,54.14,5.14,58.25,2.62,62.49z"/>
			<path class="st0" d="M34.79,6.33C48.42,6.3,59.51,17.36,59.55,31.03c0.04,13.63-10.99,24.77-24.7,24.77
				c-13.63,0-24.72-10.78-24.76-24.7C10.06,17.35,21.09,6.4,34.79,6.33z M34.86,53.89c12.61-0.05,22.84-10.32,22.76-22.88
				C57.54,18.38,47.41,8.26,34.83,8.26c-12.59,0-22.84,10.25-22.82,22.82C12.03,43.68,22.31,53.94,34.86,53.89z"/>
			<path class="st0" d="M42.85,33.73c0,3.08,0,6.04,0,9c0,1.24-0.28,1.51-1.48,1.51c-4.14,0-8.27,0-12.41,0
				c-1.17,0-1.46-0.3-1.46-1.47c0-2.98,0-5.96,0-9.04c-0.31,0-0.58,0-0.84,0c-1.98,0-3.96,0.03-5.94-0.03
				c-0.38-0.01-0.94-0.27-1.08-0.57c-0.14-0.29,0.03-0.9,0.28-1.19c4.77-5.41,9.59-10.81,14.39-16.19c0.64-0.72,1.18-0.71,1.83,0.02
				c4.79,5.36,9.58,10.74,14.36,16.11c0.33,0.37,0.68,0.83,0.3,1.26c-0.27,0.3-0.78,0.54-1.19,0.56c-1.95,0.06-3.91,0.03-5.86,0.03
				C43.48,33.73,43.21,33.73,42.85,33.73z M47.82,31.79c-4.28-4.8-8.43-9.46-12.61-14.16c-4.2,4.72-8.34,9.36-12.6,14.16
				c1.86,0,3.53,0,5.2,0c1.39,0,1.64,0.25,1.64,1.6c0,2.68,0,5.36,0,8.06c0,0.27,0,0.53,0,0.83c3.86,0,7.64,0,11.48,0
				c0-0.31,0-0.58,0-0.85c0-2.71,0-5.42,0-8.12c0-1.21,0.29-1.49,1.52-1.49C44.17,31.79,45.9,31.79,47.82,31.79z"/>
		</g>
	</g>
	<path class="st1" d="M95.41,44.16C91.38,34.5,81.84,27.7,70.72,27.7c-15.33,0-28.18,10.49-31.84,24.69h-5.19
		c-9.09,0-16.46,7.37-16.46,16.46s7.37,16.46,16.46,16.46h61.72c11.36,0,20.58-9.21,20.58-20.58
		C115.98,53.38,106.77,44.16,95.41,44.16z M95.41,77.08H33.68c-4.54,0-8.23-3.7-8.23-8.23c0-4.54,3.69-8.23,8.23-8.23h12.34
		c0-13.64,11.05-24.69,24.69-24.69c9.51,0,17.27,7.23,18.31,16.46h6.38c6.81,0,12.34,5.54,12.34,12.34
		C107.75,71.55,102.21,77.08,95.41,77.08z"/>
	<path class="st1" d="M95.41,77.08H33.68c-4.54,0-8.23-3.7-8.23-8.23c0-4.54,3.69-8.23,8.23-8.23h12.34
		c0-13.64,11.05-24.69,24.69-24.69c9.51,0,17.27,7.23,18.31,16.46h6.38c6.81,0,12.34,5.54,12.34,12.34
		C107.75,71.55,102.21,77.08,95.41,77.08z"/>
	<g>
		<polygon class="st2" points="43.49,101.94 51.19,101.94 47.18,115.27 54.15,115.27 60.15,95.27 52.45,95.27 59.45,71.94 
			52.49,71.94 		"/>
		<polygon class="st2" points="77.05,85.27 73.05,98.6 80.75,98.6 76.75,111.94 83.71,111.94 89.72,91.94 82.01,91.94 84.01,85.27 
					"/>
	</g>
</g>
<g id="Capa_2">
</g>
</svg>
