<?xml version="1.0" encoding="utf-8"?>
<!-- Generator: Adobe Illustrator 25.4.1, SVG Export Plug-In . SVG Version: 6.00 Build 0)  -->
<svg version="1.1" xmlns="http://www.w3.org/2000/svg" xmlns:xlink="http://www.w3.org/1999/xlink" x="0px" y="0px"
	 viewBox="0 0 116.6 115.27" style="enable-background:new 0 0 116.6 115.27;" xml:space="preserve">
<style type="text/css">
	.st0{fill:#FDC828;}
	.st1{fill:#FFFFFF;}
	.st2{fill:#5204AB;}
</style>
<g id="Layer_1">
	<g id="OADyBz.tif">
		<g>
			<path class="st0" d="M39.71,62.4c3.31,0,6.61,0,9.92,0c0.09,0,0.18-0.03,0.37-0.06c-0.3-0.36-0.55-0.66-0.84-1
				c1.2-1.11,2.4-2.21,3.64-3.36c0.45,0.48,0.87,0.91,1.28,1.35c1.12,1.21,2.25,2.43,3.36,3.65c1.12,1.22,1.14,2.54,0.04,3.74
				c-1.58,1.73-3.18,3.43-4.83,5.21c-1.22-1.13-2.41-2.23-3.65-3.37c0.29-0.35,0.57-0.69,0.94-1.13c-15.77,0-31.4,0-47.09,0
				c0-1.7,0-3.31,0-5c3.07,0,6.11,0,9.3,0c-0.92-0.99-1.78-1.84-2.53-2.77c-0.76-0.94-1.41-1.97-2.17-3.03
				c1.54-0.84,2.95-1.62,4.43-2.44c2.62,4.41,6.38,7.17,11.43,8.01c3.77,0.63,7.35-0.04,10.65-2c6.45-3.81,9.36-11.59,7.01-18.63
				c-2.39-7.13-9.46-11.66-16.89-10.8c-6.15,0.71-12.78,6.19-13.25,11.01c0.43-0.21,0.83-0.4,1.27-0.61
				c0.8,1.45,1.59,2.87,2.42,4.36c-2.11,1.15-4.17,2.3-6.26,3.38c-0.74,0.38-1.58,0.32-2.22-0.28c-1.75-1.63-3.46-3.3-5.3-5.06
				C2,42.47,3.22,41.4,4.5,40.27c0.21,0.19,0.63,0.58,0.97,0.88c1.01-2.19,2.02-4.37,3.06-6.63c-5.57-3.25-8.72-8.22-8.52-14.91
				c0.2-6.68,3.68-11.4,9.63-14.49C9.2,4.84,8.79,4.57,8.28,4.23c0.89-1.4,1.76-2.78,2.68-4.23c2.31,1.49,4.59,2.91,6.82,4.41
				c0.83,0.56,1.15,1.74,0.73,2.68c-0.94,2.14-1.96,4.24-2.98,6.41c-1.52-0.72-2.98-1.41-4.51-2.14c0.22-0.51,0.43-0.98,0.7-1.59
				c-0.35,0.15-0.58,0.22-0.79,0.34C6.88,12.47,4.8,16.01,5.02,20.7c0.22,4.47,2.5,7.69,6.5,9.7c0.51,0.26,0.87,0.24,1.36-0.14
				c12.19-9.66,30.3-3.17,33.44,12.07c1.56,7.54-0.67,14.07-6.18,19.47c-0.16,0.16-0.34,0.29-0.51,0.44
				C39.66,62.29,39.69,62.35,39.71,62.4z"/>
			<path class="st0" d="M34.21,46.63c-0.03,4.64-3.76,8.31-8.39,8.28c-4.61-0.03-8.31-3.77-8.29-8.4c0.02-4.6,3.78-8.31,8.4-8.28
				C30.55,38.25,34.24,42,34.21,46.63z"/>
		</g>
	</g>
	<path class="st1" d="M95.41,44.16C91.38,34.5,81.84,27.7,70.72,27.7c-15.33,0-28.18,10.49-31.84,24.69h-5.19
		c-9.09,0-16.46,7.37-16.46,16.46s7.37,16.46,16.46,16.46h61.72c11.36,0,20.58-9.21,20.58-20.58
		C115.98,53.38,106.77,44.16,95.41,44.16z M95.41,77.08H33.68c-4.54,0-8.23-3.7-8.23-8.23c0-4.54,3.69-8.23,8.23-8.23h12.34
		c0-13.64,11.05-24.69,24.69-24.69c9.51,0,17.27,7.23,18.31,16.46h6.38c6.81,0,12.34,5.54,12.34,12.34
		C107.75,71.55,102.21,77.08,95.41,77.08z"/>
	<path class="st1" d="M95.41,77.08H33.68c-4.54,0-8.23-3.7-8.23-8.23c0-4.54,3.69-8.23,8.23-8.23h12.34
		c0-13.64,11.05-24.69,24.69-24.69c9.51,0,17.27,7.23,18.31,16.46h6.38c6.81,0,12.34,5.54,12.34,12.34
		C107.75,71.55,102.21,77.08,95.41,77.08z"/>
	<g>
		<polygon class="st2" points="47.08,86.72 42.63,100.05 49.66,100.05 54.1,86.72 		"/>
		<circle class="st2" cx="42.43" cy="110.05" r="3.33"/>
		<polygon class="st2" points="66.13,113.38 70.57,100.05 63.54,100.05 59.1,113.38 		"/>
		<circle class="st2" cx="70.77" cy="90.05" r="3.33"/>
		<polygon class="st2" points="87.08,86.72 82.63,100.05 89.66,100.05 94.1,86.72 		"/>
		<circle class="st2" cx="82.43" cy="110.05" r="3.33"/>
	</g>
</g>
<g id="Capa_2">
</g>
</svg>
