<?xml version="1.0" encoding="utf-8"?>
<!-- Generator: Adobe Illustrator 25.4.1, SVG Export Plug-In . SVG Version: 6.00 Build 0)  -->
<svg version="1.1" xmlns="http://www.w3.org/2000/svg" xmlns:xlink="http://www.w3.org/1999/xlink" x="0px" y="0px"
	 viewBox="0 0 116.6 115.27" style="enable-background:new 0 0 116.6 115.27;" xml:space="preserve">
<style type="text/css">
	.st0{fill:#FDC828;}
	.st1{fill:#FFFFFF;}
	.st2{fill:#5204AB;}
</style>
<g id="Layer_1">
	<g id="lAag6f.tif">
		<g>
			<path class="st0" d="M60.49,34.14c-0.43,1.1-0.92,2.2-2.06,2.71c-0.69,0.31-1.48,0.47-2.24,0.53c-0.55,0.04-0.75,0.23-0.94,0.72
				c-0.56,1.46-1.16,2.9-1.79,4.32c-0.18,0.41-0.2,0.66,0.13,1.02c1.98,2.12,1.92,4.27-0.13,6.33c-1.3,1.3-2.59,2.61-3.9,3.89
				c-1.85,1.82-4.14,1.84-6,0.04c-0.41-0.4-0.71-0.44-1.24-0.19c-1.39,0.64-2.81,1.22-4.24,1.75c-0.5,0.19-0.68,0.41-0.69,0.95
				c-0.05,2.64-1.69,4.25-4.32,4.27c-1.9,0.02-3.79,0.02-5.69,0c-2.63-0.02-4.26-1.63-4.3-4.28c-0.01-0.54-0.19-0.76-0.69-0.95
				c-1.43-0.54-2.84-1.13-4.24-1.75c-0.46-0.21-0.75-0.26-1.17,0.14c-2.01,1.92-4.22,1.86-6.2-0.11c-1.32-1.32-2.65-2.63-3.96-3.96
				c-1.81-1.83-1.84-4.17-0.06-6.01c0.39-0.4,0.47-0.69,0.22-1.23c-0.65-1.38-1.22-2.81-1.76-4.24c-0.18-0.49-0.39-0.69-0.94-0.7
				c-2.69-0.04-4.28-1.68-4.29-4.38c-0.01-1.9-0.01-3.79,0-5.69c0.02-2.53,1.64-4.21,4.15-4.24c0.67-0.01,0.9-0.25,1.11-0.84
				c0.52-1.41,1.12-2.78,1.74-4.15c0.2-0.44,0.21-0.71-0.15-1.09c-1.92-2.02-1.88-4.24,0.07-6.2c1.34-1.34,2.67-2.69,4.02-4.02
				c1.8-1.77,4.14-1.8,5.93-0.03c0.43,0.43,0.72,0.49,1.3,0.22C19.57,6.3,21,5.75,22.43,5.21c0.46-0.17,0.64-0.37,0.65-0.89
				c0.07-2.79,1.66-4.31,4.44-4.32c1.9,0,3.79-0.01,5.69,0c2.46,0.02,4.15,1.66,4.18,4.11c0.01,0.64,0.2,0.92,0.81,1.14
				c1.44,0.52,2.84,1.14,4.23,1.77c0.42,0.19,0.66,0.18,1.01-0.15c2.06-1.95,4.25-1.91,6.26,0.08c1.3,1.29,2.6,2.59,3.9,3.89
				c1.86,1.88,1.91,4.18,0.09,6.07c-0.4,0.42-0.43,0.71-0.19,1.23c0.64,1.39,1.17,2.83,1.78,4.23c0.12,0.27,0.44,0.65,0.66,0.64
				c2.4-0.06,3.81,1.16,4.54,3.34C60.49,28.96,60.49,31.55,60.49,34.14z M37.41,51.86c1.65-0.83,3.13-1.53,4.58-2.3
				c1.25-0.67,1.87-0.63,2.89,0.38c0.36,0.36,0.74,0.71,1.08,1.09c0.38,0.42,0.71,0.45,1.13,0.02c1.31-1.33,2.63-2.65,3.96-3.96
				c0.43-0.42,0.39-0.75-0.03-1.13c-0.46-0.43-0.91-0.88-1.34-1.34c-0.68-0.74-0.81-1.45-0.29-2.3c1.34-2.2,2.3-4.55,2.93-7.05
				c0.25-1,0.86-1.43,1.9-1.46c0.6-0.02,1.21-0.03,1.81,0c0.64,0.04,0.84-0.24,0.84-0.86c-0.02-1.81-0.03-3.61,0-5.42
				c0.01-0.7-0.29-0.9-0.92-0.87c-0.6,0.03-1.2,0.02-1.8-0.01c-0.94-0.05-1.59-0.5-1.82-1.45c-0.61-2.5-1.58-4.85-2.93-7.05
				c-0.51-0.82-0.37-1.61,0.29-2.31c0.46-0.48,0.92-0.95,1.4-1.41c0.35-0.33,0.39-0.63,0.03-0.99c-1.37-1.35-2.73-2.72-4.09-4.09
				c-0.35-0.36-0.65-0.35-0.99,0.01c-0.44,0.46-0.88,0.91-1.34,1.34c-0.81,0.77-1.52,0.89-2.44,0.32c-2.15-1.31-4.44-2.26-6.88-2.87
				c-1.11-0.28-1.53-0.86-1.57-2.01c-0.02-0.57-0.03-1.14,0-1.72c0.03-0.62-0.21-0.86-0.84-0.84c-1.32,0.03-2.65,0.01-3.97,0.01
				c-2.29,0-2.29,0-2.31,2.25c0,0.15,0.01,0.3,0,0.45c-0.07,0.94-0.5,1.6-1.45,1.83c-2.5,0.6-4.84,1.59-7.05,2.92
				c-0.89,0.54-1.59,0.41-2.37-0.33c-0.48-0.46-0.9-0.98-1.43-1.38c-0.19-0.15-0.72-0.15-0.88,0.01c-1.4,1.33-2.74,2.71-4.11,4.06
				c-0.41,0.4-0.33,0.71,0.05,1.06c0.46,0.43,0.91,0.88,1.34,1.34c0.71,0.77,0.82,1.49,0.28,2.38c-1.3,2.15-2.26,4.44-2.86,6.88
				c-0.27,1.11-0.85,1.53-2.01,1.57c-0.6,0.02-1.2,0.02-1.81,0c-0.52-0.01-0.78,0.18-0.77,0.74c0.01,1.9,0.01,3.79,0,5.69
				c0,0.49,0.2,0.72,0.7,0.71c0.66-0.01,1.32-0.02,1.99,0c0.94,0.03,1.62,0.47,1.85,1.42c0.62,2.53,1.6,4.91,2.96,7.13
				c0.48,0.78,0.34,1.56-0.29,2.23c-0.41,0.44-0.82,0.88-1.28,1.28c-0.53,0.46-0.54,0.83-0.02,1.32c1.09,1.03,2.13,2.12,3.2,3.18
				c1.36,1.35,1.07,1.35,2.46-0.03c1.57-1.56,1.85-1.56,3.82-0.49c1.28,0.7,2.62,1.26,4.06,1.95c0-2.51-0.03-4.76,0.02-7.02
				c0.01-0.67-0.22-0.99-0.8-1.3c-9.09-4.79-11.33-16.89-4.56-24.61c1.44-1.64,3.04-3.11,5.19-3.76c1.77-0.53,3.28,0.36,3.72,2.15
				c0.13,0.52,0.18,1.07,0.18,1.61c-0.01,3.07-0.05,6.14-0.06,9.21c0,0.42,0.04,0.84,0.13,1.25c0.33,1.52,1.73,2.79,3.19,2.92
				c1.27,0.11,2.83-1.01,3.35-2.46c0.15-0.42,0.26-0.88,0.26-1.32c0.01-3.07-0.03-6.14-0.02-9.21c0-0.74,0.05-1.51,0.24-2.22
				c0.37-1.4,1.48-2.18,2.9-2.04c0.7,0.07,1.42,0.31,2.04,0.64c5.51,3.01,8.81,10.11,7.65,16.29c-0.99,5.24-3.82,9.13-8.5,11.68
				c-0.26,0.14-0.56,0.51-0.56,0.77C37.39,46.76,37.41,49.14,37.41,51.86z M37.33,18.88c0,1.3,0.01,2.41,0,3.52
				c-0.03,2.4,0.08,4.82-0.16,7.21c-0.33,3.42-3.72,6.34-6.98,6.28c-3.32-0.06-6.61-2.89-6.87-6.28c-0.26-3.29-0.12-6.61-0.16-9.92
				c0-0.22,0-0.44,0-0.75c-0.22,0.13-0.33,0.19-0.42,0.25c-3.74,2.72-5.65,6.4-5.3,11.01c0.37,4.98,3,8.54,7.57,10.56
				c1.19,0.53,1.7,1.26,1.68,2.54c-0.04,4.18,0,8.36-0.03,12.55c-0.01,0.8,0.27,1.05,1.05,1.03c1.65-0.05,3.31-0.05,4.96,0
				c0.85,0.03,1.15-0.23,1.14-1.12c-0.04-4.21,0-8.42-0.03-12.64c-0.01-1.13,0.46-1.83,1.51-2.29c4.66-2.02,7.34-5.59,7.73-10.64
				C43.39,25.44,41.33,21.74,37.33,18.88z"/>
		</g>
	</g>
	<path class="st1" d="M95.41,44.16C91.38,34.5,81.84,27.7,70.72,27.7c-15.33,0-28.18,10.49-31.84,24.69h-5.19
		c-9.09,0-16.46,7.37-16.46,16.46s7.37,16.46,16.46,16.46h61.72c11.36,0,20.58-9.21,20.58-20.58
		C115.98,53.38,106.77,44.16,95.41,44.16z M95.41,77.08H33.68c-4.54,0-8.23-3.7-8.23-8.23c0-4.54,3.69-8.23,8.23-8.23h12.34
		c0-13.64,11.05-24.69,24.69-24.69c9.51,0,17.27,7.23,18.31,16.46h6.38c6.81,0,12.34,5.54,12.34,12.34
		C107.75,71.55,102.21,77.08,95.41,77.08z"/>
	<path class="st1" d="M95.41,77.08H33.68c-4.54,0-8.23-3.7-8.23-8.23c0-4.54,3.69-8.23,8.23-8.23h12.34
		c0-13.64,11.05-24.69,24.69-24.69c9.51,0,17.27,7.23,18.31,16.46h6.38c6.81,0,12.34,5.54,12.34,12.34
		C107.75,71.55,102.21,77.08,95.41,77.08z"/>
	<polygon class="st2" points="74.93,71.94 62.71,71.94 54.93,95.27 64.93,95.27 58.27,115.27 78.27,88.6 68.27,88.6 	"/>
</g>
<g id="Capa_2">
</g>
</svg>
