<?xml version="1.0" encoding="utf-8"?>
<!-- Generator: Adobe Illustrator 25.4.1, SVG Export Plug-In . SVG Version: 6.00 Build 0)  -->
<svg version="1.1" id="Capa_1" xmlns="http://www.w3.org/2000/svg" xmlns:xlink="http://www.w3.org/1999/xlink" x="0px" y="0px"
	 viewBox="0 0 53 56.5" style="enable-background:new 0 0 53 56.5;" xml:space="preserve">
<style type="text/css">
	.st0{fill:#FDC828;}
	.st1{fill:#FFFFFF;}
</style>
<g>
	<path class="st0" d="M28,40.8V9c0-0.9-0.7-1.6-1.6-1.6c-0.9,0-1.6,0.7-1.6,1.6v31.8c-2,0.7-3.5,2.6-3.5,4.8c0,2.8,2.3,5.1,5.1,5.1
		s5.1-2.3,5.1-5.1C31.5,43.4,30.1,41.5,28,40.8z"/>
	<path class="st1" d="M32.8,36.4v-30c0-1.7-0.7-3.3-1.9-4.5C29.8,0.7,28.2,0,26.5,0c-3.5,0-6.3,2.8-6.3,6.3v30
		c-3,2.1-4.8,5.5-4.8,9.1c0,6.1,5,11.1,11.1,11.1s11.1-5,11.1-11.1C37.5,41.8,35.7,38.4,32.8,36.4z M26.4,53.3
		c-4.3,0-7.8-3.5-7.8-7.8c0-2.8,1.5-5.4,4-6.8c0.5-0.3,0.8-0.8,0.8-1.4v-31c0-1.7,1.4-3.1,3.1-3.1c0.8,0,1.6,0.3,2.2,0.9
		c0.6,0.6,0.9,1.4,0.9,2.2v30.9c0,0.6,0.3,1.1,0.8,1.4c2.4,1.4,3.9,4,3.9,6.8C34.3,49.8,30.8,53.3,26.4,53.3z"/>
</g>
<g>
	<path class="st0" d="M53,30.1l-12.3,5.2l-0.9-2.8l9.5-3.8l-9.5-3.8l0.9-2.8L53,27.2V30.1z"/>
</g>
<path class="st0" d="M0,27.2L12.3,22l0.9,2.8l-9.5,3.8l9.5,3.8l-0.9,2.8L0,30.1V27.2z"/>
</svg>
