<?xml version="1.0" encoding="utf-8"?>
<!-- Generator: Adobe Illustrator 25.4.1, SVG Export Plug-In . SVG Version: 6.00 Build 0)  -->
<svg version="1.1" xmlns="http://www.w3.org/2000/svg" xmlns:xlink="http://www.w3.org/1999/xlink" x="0px" y="0px"
	 viewBox="0 0 116.6 115.27" style="enable-background:new 0 0 116.6 115.27;" xml:space="preserve">
<style type="text/css">
	.st0{fill:#FDC828;}
	.st1{fill:#FFFFFF;}
	.st2{fill:#5204AB;}
</style>
<g id="Layer_1">
	<g id="okB3DD.tif">
		<g>
			<path class="st0" d="M7.83,68.19c-2.86-0.64-4.63-2.78-6.38-4.83c-2.02-2.37-1.92-5.92,0.23-8.18c3.47-3.65,7.05-7.18,10.6-10.75
				c0.68-0.69,1.55-0.92,2.52-0.89c0.3,0.01,0.69-0.11,0.9-0.31c1.32-1.27,2.6-2.59,3.94-3.93c-0.27-0.52-0.53-1.02-0.78-1.51
				c-8.14-16,1.91-35.17,19.69-37.56C52.87-1.69,65.98,8.54,67.7,23c1.65,13.83-8.09,26.59-21.89,28.63
				c-5.65,0.83-11.04-0.08-16.07-2.8c-0.72-0.39-1.08-0.28-1.58,0.27c-0.98,1.07-2.06,2.06-3.04,3.13
				c-0.26,0.28-0.43,0.75-0.44,1.13c-0.01,1-0.29,1.87-1,2.58c-3.43,3.47-6.81,6.98-10.33,10.35c-0.91,0.87-2.27,1.27-3.43,1.89
				C9.22,68.19,8.52,68.19,7.83,68.19z M41.85,3.27C29.39,3.3,19.2,13.52,19.21,25.99c0.01,12.55,10.17,22.69,22.73,22.69
				c12.55,0,22.72-10.19,22.69-22.73C64.59,13.4,54.39,3.25,41.85,3.27z M14.48,46.88c-3.47,3.48-6.95,6.93-10.37,10.44
				c-1.17,1.2-1.08,3.05,0.07,4.31c0.64,0.7,1.34,1.35,2.01,2.01c1.74,1.72,3.59,1.72,5.3,0c3.1-3.12,6.19-6.25,9.28-9.37
				c0.21-0.21,0.4-0.44,0.53-0.59C19,51.38,16.76,49.15,14.48,46.88z M22.5,49.97c1.17-1.18,2.32-2.34,3.16-3.19
				c-1.44-1.43-2.93-2.92-4.31-4.28c-0.89,0.9-2.06,2.07-3.18,3.19C19.59,47.09,21.07,48.55,22.5,49.97z"/>
			<path class="st0" d="M22.5,26.1c-0.02-9.27,6.54-17.34,15.62-19.19c1.21-0.25,2.11,0.24,2.28,1.24c0.17,0.97-0.43,1.69-1.62,1.94
				c-7.65,1.62-13.06,8.15-13.09,15.8c-0.03,7.77,5.28,14.35,12.94,16.02c9.09,1.99,18.29-4.53,19.39-13.74
				c0.86-7.28-2.67-13.7-9.32-16.91c-0.82-0.39-1.38-0.91-1.25-1.89c0.1-0.74,0.57-1.23,1.29-1.31c0.41-0.05,0.88,0.07,1.27,0.24
				c7.39,3.24,12.12,11.39,11.27,19.38c-0.94,8.92-7.01,15.62-15.77,17.42c-10.36,2.12-21.07-5.34-22.66-15.81
				C22.68,28.24,22.61,27.17,22.5,26.1z"/>
		</g>
	</g>
	<path class="st1" d="M95.41,44.16C91.38,34.5,81.84,27.7,70.72,27.7c-15.33,0-28.18,10.49-31.84,24.69h-5.19
		c-9.09,0-16.46,7.37-16.46,16.46s7.37,16.46,16.46,16.46h61.72c11.36,0,20.58-9.21,20.58-20.58
		C115.98,53.38,106.77,44.16,95.41,44.16z M95.41,77.08H33.68c-4.54,0-8.23-3.7-8.23-8.23c0-4.54,3.69-8.23,8.23-8.23h12.34
		c0-13.64,11.05-24.69,24.69-24.69c9.51,0,17.27,7.23,18.31,16.46h6.38c6.81,0,12.34,5.54,12.34,12.34
		C107.75,71.55,102.21,77.08,95.41,77.08z"/>
	<path class="st1" d="M95.41,77.08H33.68c-4.54,0-8.23-3.7-8.23-8.23c0-4.54,3.69-8.23,8.23-8.23h12.34
		c0-13.64,11.05-24.69,24.69-24.69c9.51,0,17.27,7.23,18.31,16.46h6.38c6.81,0,12.34,5.54,12.34,12.34
		C107.75,71.55,102.21,77.08,95.41,77.08z"/>
	<g>
		<circle class="st2" cx="47.43" cy="91.99" r="3.33"/>
		<circle class="st2" cx="62.43" cy="91.99" r="3.33"/>
		<circle class="st2" cx="77.44" cy="91.99" r="3.33"/>
		<circle class="st2" cx="92.43" cy="91.99" r="3.33"/>
		<circle class="st2" cx="40.77" cy="106.99" r="3.33"/>
		<circle class="st2" cx="55.77" cy="106.99" r="3.33"/>
		<circle class="st2" cx="70.77" cy="106.99" r="3.33"/>
		<circle class="st2" cx="85.77" cy="106.99" r="3.33"/>
	</g>
</g>
<g id="Capa_2">
</g>
</svg>
