<?xml version="1.0" encoding="utf-8"?>
<!-- Generator: Adobe Illustrator 25.4.1, SVG Export Plug-In . SVG Version: 6.00 Build 0)  -->
<svg version="1.1" id="Capa_1" xmlns="http://www.w3.org/2000/svg" xmlns:xlink="http://www.w3.org/1999/xlink" x="0px" y="0px"
	 viewBox="0 0 82 56.5" style="enable-background:new 0 0 82 56.5;" xml:space="preserve">
<style type="text/css">
	.st0{fill:#FDC828;}
	.st1{fill:#FFFFFF;}
</style>
<g>
	<path class="st0" d="M72.4,40.8V9c0-0.9-0.7-1.6-1.6-1.6c-0.9,0-1.6,0.7-1.6,1.6v31.8c-2,0.7-3.5,2.6-3.5,4.8
		c0,2.8,2.3,5.1,5.1,5.1c2.8,0,5.1-2.3,5.1-5.1C75.9,43.4,74.5,41.5,72.4,40.8z"/>
	<path class="st1" d="M77.2,36.4v-30c0-1.7-0.7-3.3-1.9-4.5C74.2,0.7,72.6,0,70.9,0c-3.5,0-6.3,2.8-6.3,6.3v30
		c-3,2.1-4.8,5.5-4.8,9.1c0,6.1,5,11.1,11.1,11.1c6.1,0,11.1-5,11.1-11.1C81.9,41.8,80.1,38.4,77.2,36.4z M70.8,53.3
		c-4.3,0-7.8-3.5-7.8-7.8c0-2.8,1.5-5.4,4-6.8c0.5-0.3,0.8-0.8,0.8-1.4V6.3c0-1.7,1.4-3.1,3.1-3.1c0.8,0,1.6,0.3,2.2,0.9
		C73.6,4.7,74,5.5,74,6.3v30.9c0,0.6,0.3,1.1,0.8,1.4c2.4,1.4,3.9,4,3.9,6.8C78.7,49.8,75.1,53.3,70.8,53.3z"/>
</g>
<g id="_x33_qjto1.tif">
	<g>
		<path class="st1" d="M0,48.7c2.7-2.7,5.4-5.4,8.1-8.1c1.1-1.1,2.2-2.2,3.3-3.3c-0.1-0.2-0.2-0.3-0.2-0.4
			C3.2,23.3,9.8,5.9,24.8,1.2c1.7-0.5,3.6-0.7,5.3-1.1c0.2,0,0.3-0.1,0.5-0.1c1,0,2.1,0,3.1,0c0.1,0,0.3,0.1,0.4,0.1
			c2.9,0.2,5.6,1,8.2,2.1c11.1,5,16.8,17.8,13.1,29.5c-4.8,15-22.1,21.6-35.7,13.6c-0.4-0.2-0.6-0.2-0.8,0.1
			c-3.5,3.5-7.1,7.1-10.6,10.6c-0.1,0.1-0.3,0.3-0.5,0.4c-2.5-2.5-4.9-4.9-7.3-7.3C0.3,49,0.2,48.9,0,48.8C0,48.7,0,48.7,0,48.7z
			 M53.2,24.4c0-11.6-9.5-21.1-21.1-21.1c-11.6,0-21.1,9.5-21,21.1c0,11.6,9.5,21.1,21.1,21.1C43.7,45.5,53.2,36,53.2,24.4z
			 M13.4,40.2c-2.8,2.8-5.7,5.7-8.5,8.5c0.9,0.9,2,2,3,3c2.8-2.8,5.7-5.7,8.5-8.5C15.4,42.2,14.3,41.2,13.4,40.2z"/>
		<path class="st1" d="M14.4,24c0.3-10,8.5-17.7,18.5-17.3c9.7,0.4,17.3,8.6,17,18.5c-0.3,9.5-8.6,17.3-18.2,17
			C21.9,41.8,14.1,33.7,14.4,24z M17.7,24.4c0,7.9,6.5,14.4,14.4,14.4c7.9,0,14.5-6.5,14.5-14.5c0-7.9-6.5-14.4-14.4-14.4
			C24.2,9.9,17.7,16.4,17.7,24.4z"/>
		<path class="st1" d="M39.2,17.5c0.8,0.8,1.6,1.6,2.3,2.3c-3.8,3.8-7.7,7.7-11.5,11.5c-2.4-2.4-4.9-4.9-7.4-7.4
			c0.7-0.7,1.5-1.5,2.3-2.3c1.6,1.7,3.3,3.4,5,5.1C33.1,23.6,36.2,20.6,39.2,17.5z"/>
	</g>
</g>
</svg>
