<?xml version="1.0" encoding="utf-8"?>
<!-- Generator: Adobe Illustrator 25.4.1, SVG Export Plug-In . SVG Version: 6.00 Build 0)  -->
<svg version="1.1" id="Capa_1" xmlns="http://www.w3.org/2000/svg" xmlns:xlink="http://www.w3.org/1999/xlink" x="0px" y="0px"
	 viewBox="0 0 82.3 56.5" style="enable-background:new 0 0 82.3 56.5;" xml:space="preserve">
<style type="text/css">
	.st0{fill:#5204AB;}
	.st1{fill:#FDC828;}
</style>
<g>
	<g id="fUMcOs.tif">
		<g>
			<path class="st0" d="M25,0c1.8,0,3.6,0,5.4,0c0.5,0.3,0.6,0.7,0.7,1.2c0.2,1.2,0.4,2.5,0.6,3.7c0.1,0.3,0.2,0.5,0.5,0.5
				c1.1,0.3,2.1,0.5,3.1,0.8c0.3,0.1,0.5,0,0.7-0.2c0.8-1,1.7-2,2.5-3c0.6-0.7,0.8-0.7,1.6-0.3c1.2,0.7,2.4,1.4,3.7,2.1
				c0.7,0.4,0.8,0.7,0.6,1.5c-0.4,1.2-0.9,2.5-1.3,3.7c-0.1,0.3-0.1,0.5,0.2,0.7c0.8,0.8,1.5,1.5,2.3,2.3c0.2,0.2,0.4,0.3,0.8,0.2
				c1.3-0.5,2.5-0.9,3.8-1.4c0.7-0.3,1-0.2,1.4,0.5c0.7,1.2,1.4,2.5,2.2,3.7c0.4,0.7,0.3,1.1-0.3,1.7c-1,0.8-2,1.6-3,2.5
				c-0.1,0.1-0.3,0.3-0.3,0.4c0.2,0.5,0.3,1,0.6,1.3c1.6,1.7,3.2,3.4,4.7,5.1c0.4,0.5,0.4,0.9,0,1.4c-1.5,1.6-2.9,3.2-4.4,4.8
				c-0.2,0.2-0.3,0.4-0.4,0.6c-0.2,0.5-0.3,1.1-0.5,1.6C50,35.8,50,36,50.3,36.2c1,0.8,2,1.7,3.1,2.5c0.7,0.6,0.7,0.8,0.3,1.6
				c-0.7,1.2-1.4,2.5-2.2,3.7c-0.4,0.7-0.7,0.8-1.5,0.5c-1.2-0.4-2.4-0.9-3.6-1.3c-0.4-0.1-0.6-0.1-0.9,0.2
				c-0.7,0.8-1.5,1.5-2.2,2.2c-0.3,0.3-0.3,0.5-0.2,0.9c0.5,1.2,0.9,2.4,1.3,3.7c0.3,0.8,0.2,1-0.5,1.4c-1.2,0.7-2.5,1.4-3.7,2.2
				c-0.7,0.4-1.1,0.3-1.6-0.3c-0.8-1-1.7-2-2.5-3c-0.2-0.3-0.4-0.3-0.7-0.2c-1,0.3-2.1,0.6-3.1,0.8c-0.3,0.1-0.5,0.2-0.5,0.5
				c-0.2,1.3-0.4,2.5-0.6,3.8c-0.1,0.8-0.4,1.1-1.2,1.1c-1.4,0-2.8,0-4.2,0c-0.8,0-1.1-0.2-1.2-1c-0.2-1.3-0.5-2.6-0.7-3.9
				c-0.1-0.3-0.2-0.5-0.5-0.5c-1-0.3-2.1-0.5-3.1-0.8c-0.3-0.1-0.6-0.1-0.8,0.2c-0.8,1-1.7,2-2.5,3c-0.6,0.7-0.8,0.7-1.6,0.3
				c-1.2-0.7-2.5-1.4-3.7-2.2c-0.7-0.4-0.8-0.7-0.5-1.5c0.4-1.2,0.9-2.5,1.3-3.7c0.1-0.4,0.1-0.6-0.2-0.8c-0.8-0.7-1.5-1.5-2.3-2.3
				c-0.2-0.3-0.4-0.3-0.8-0.2c-1.3,0.5-2.6,0.9-3.8,1.4c-0.7,0.2-0.9,0.1-1.3-0.5c-0.7-1.3-1.5-2.5-2.2-3.8
				c-0.4-0.7-0.3-1.1,0.3-1.6c0.7-0.6,1.5-1.2,2.2-1.9c1.1-0.9,1.1-0.9,0.7-2.3c-0.1-0.4-0.3-0.8-0.5-1.1c-1.5-1.6-3-3.2-4.5-4.9
				C-0.6,28-0.6,27.7,0,27c1.6-1.7,3.2-3.4,4.8-5.1c0.7-0.7,0.7-1.3-0.1-1.9c-0.9-0.7-1.8-1.5-2.7-2.3c-0.6-0.5-0.7-0.8-0.3-1.5
				c0.7-1.2,1.4-2.5,2.2-3.7c0.4-0.8,0.7-0.8,1.5-0.5c1.2,0.4,2.5,0.9,3.7,1.3c0.3,0.1,0.5,0.1,0.7-0.1c0.8-0.8,1.5-1.6,2.3-2.3
				c0.2-0.2,0.3-0.4,0.2-0.7c-0.5-1.3-0.9-2.6-1.4-3.8c-0.2-0.7-0.1-1,0.5-1.3c1.2-0.7,2.5-1.4,3.7-2.2c0.7-0.4,1.2-0.3,1.7,0.3
				c0.8,1,1.7,2,2.5,3c0.2,0.3,0.4,0.3,0.7,0.2c1-0.3,2.1-0.5,3.1-0.9c0.2-0.1,0.4-0.3,0.5-0.5c0.3-1.3,0.5-2.5,0.7-3.8
				C24.4,0.6,24.6,0.3,25,0z M27.4,41.3c5.5,0,10.3-1.3,14.9-3.7c4.4-2.4,8.1-5.6,11.3-9.4c0.2-0.3,0.2-0.4,0-0.7
				c-1.6-1.9-3.3-3.7-5.2-5.2c-5.2-4.3-11-7-17.8-7.7C25.2,14,20,14.9,15.1,17.1c-5.3,2.4-9.7,6-13.4,10.4c-0.2,0.3-0.2,0.4,0,0.6
				c2.4,2.9,5.2,5.5,8.3,7.6C15.4,39.3,21.2,41.2,27.4,41.3z"/>
		</g>
	</g>
	<circle class="st0" cx="27.7" cy="27.8" r="7.4"/>
</g>
<g>
	<path class="st1" d="M72.8,40.8V9c0-0.9-0.7-1.6-1.6-1.6c-0.9,0-1.6,0.7-1.6,1.6v31.8c-2,0.7-3.5,2.6-3.5,4.8
		c0,2.8,2.3,5.1,5.1,5.1c2.8,0,5.1-2.3,5.1-5.1C76.3,43.4,74.8,41.5,72.8,40.8z"/>
	<path class="st0" d="M77.6,36.4v-30c0-1.7-0.7-3.3-1.9-4.5C74.5,0.7,72.9,0,71.3,0c-3.5,0-6.3,2.8-6.3,6.3v30
		c-3,2.1-4.8,5.5-4.8,9.1c0,6.1,5,11.1,11.1,11.1s11.1-5,11.1-11.1C82.3,41.8,80.5,38.4,77.6,36.4z M71.2,53.3
		c-4.3,0-7.8-3.5-7.8-7.8c0-2.8,1.5-5.4,4-6.8c0.5-0.3,0.8-0.8,0.8-1.4V6.3c0-1.7,1.4-3.1,3.1-3.1c0.8,0,1.6,0.3,2.2,0.9
		c0.6,0.6,0.9,1.4,0.9,2.2v30.9c0,0.6,0.3,1.1,0.8,1.4c2.4,1.4,3.9,4,3.9,6.8C79,49.8,75.5,53.3,71.2,53.3z"/>
</g>
</svg>
