<?xml version="1.0" encoding="utf-8"?>
<!-- Generator: Adobe Illustrator 25.4.1, SVG Export Plug-In . SVG Version: 6.00 Build 0)  -->
<svg version="1.1" id="Capa_1" xmlns="http://www.w3.org/2000/svg" xmlns:xlink="http://www.w3.org/1999/xlink" x="0px" y="0px"
	 viewBox="0 0 119.5 56.5" style="enable-background:new 0 0 119.5 56.5;" xml:space="preserve">
<style type="text/css">
	.st0{fill:#FFFFFF;}
	.st1{fill:#FDC828;}
</style>
<g id="Layer_1">
	<g>
		<path class="st0" d="M58.8,56.5H14.1C6.3,56.5,0,50.2,0,42.4s6.3-14.1,14.1-14.1v-2.4c0-9.1,7.4-16.5,16.5-16.5
			c3.4,0,6.5,1,9.1,2.8C43.1,5,53.9,0,62.4,0l-3.5,9.4c-6.5,0-11.8,5.3-11.8,11.8v4.7h-9.4c0-3.9-3.2-7.1-7.1-7.1s-7.1,3.2-7.1,7.1
			v11.8h-9.4c-2.6,0-4.7,2.1-4.7,4.7c0,2.6,2.1,4.7,4.7,4.7h44.7C58.8,47.1,58.8,56.5,58.8,56.5z"/>
	</g>
</g>
<g id="Capa_2_00000011746247988678307510000010847653460718632354_">
</g>
<g id="Es7KeX.tif">
	<g>
		<path class="st1" d="M90.2,56.2c0-0.1-0.1-0.3-0.1-0.4c0.2-1,0.7-1.8,1.4-2.5c3.6-3.8,6.5-8,8.7-12.8c0.1-0.2,0.2-0.4,0.3-0.6
			c-1.6,0-3.2,0-4.9,0c0.3-0.8,0.5-1.5,0.8-2.2c0-0.1,0.3-0.2,0.5-0.2c1.4,0,2.8,0,4.2,0c0.4,0,0.5-0.1,0.6-0.4
			c2.1-6,2.1-11.9,0-17.9c-0.1-0.3-0.3-0.4-0.6-0.4c-6.3,0-12.7,0-19,0c-0.4,0-0.5,0.1-0.6,0.5c-0.3,1.4-0.7,2.7-1.1,4.1
			c-0.1,0.4-0.2,0.6-0.6,0.7c-0.6,0.2-1.3,0.4-2.1,0.7c0.5-2.1,0.9-4,1.4-5.9c-0.1,0-0.3,0-0.5,0c-3.5,0-6.9,0-10.4,0
			c-0.4,0-0.6,0.1-0.7,0.5c-1.1,3-1.6,6-1.6,9.2c0,0.1-0.1,0.4-0.3,0.4c-0.6,0.2-1.3,0.4-2,0.7c0-1,0-2,0-2.9
			c0.4-6.1,2.4-11.5,6.3-16.2c4.6-5.6,10.4-9,17.6-10.1c8.7-1.3,16.4,1.1,22.9,6.9c5,4.5,8,10.1,9.1,16.8c0.1,0.8,0.2,1.6,0.3,2.4
			c0,1.2,0,2.3,0,3.5c0,0.1-0.1,0.3-0.1,0.4c-0.3,4.4-1.6,8.5-3.9,12.2c-4.5,7.3-10.9,11.7-19.3,13.3c-1,0.2-2.1,0.3-3.1,0.4
			C92.2,56.2,91.2,56.2,90.2,56.2z M103.9,37.4c0.2,0,0.2,0,0.3,0c3.6,0,7.2,0,10.8,0c0.4,0,0.5-0.2,0.5-0.5
			c2.1-5.9,2.2-11.8,0-17.7c-0.1-0.4-0.3-0.6-0.8-0.6c-3.4,0-6.9,0-10.3,0c-0.2,0-0.4,0-0.6,0C106,25,106,31.2,103.9,37.4z
			 M91.5,2.8c-3.8,4.1-6.8,8.5-9,13.5c6,0,12,0,18.1,0C98.3,11.3,95.2,6.9,91.5,2.8z M88.5,2.5c-4.9,0.6-9.2,2.4-13,5.4
			c-2.9,2.3-5.2,5.1-7,8.4c0.1,0,0.2,0,0.3,0c3.5,0,7.1,0,10.6,0c0.2,0,0.4-0.2,0.5-0.4c1.9-4.5,4.5-8.6,7.7-12.4
			C87.9,3.2,88.2,2.9,88.5,2.5z M94.5,2.6c0,0,0,0.1,0,0.1c0.1,0.1,0.2,0.3,0.3,0.4c3.3,3.9,6.1,8.1,8,12.9c0.1,0.3,0.3,0.4,0.6,0.4
			c3.4,0,6.9,0,10.3,0c0.1,0,0.3,0,0.4,0C110.6,8.7,102.5,3.3,94.5,2.6z M94.4,53.7c5.6-0.7,10.4-2.9,14.5-6.7c2.2-2,4-4.4,5.4-7.1
			c-0.2,0-0.3,0-0.3,0c-3.5,0-7,0-10.5,0c-0.4,0-0.5,0.2-0.6,0.4c-1.6,3.8-3.6,7.2-6.1,10.5C96,51.7,95.2,52.6,94.4,53.7z"/>
		<path class="st1" d="M80.7,44.6c-3.9,3.9-7.7,7.7-11.5,11.5c-1.9-1.9-3.8-3.8-5.7-5.7c3.8-3.8,7.6-7.6,11.5-11.5
			c-3.9-1.5-7.7-2.9-11.6-4.4c11-3.8,21.9-7.5,32.9-11.3c-3.8,11-7.5,21.9-11.3,32.9C83.6,52.2,82.1,48.4,80.7,44.6z M84.9,49.2
			c2.5-7.5,5-14.8,7.6-22.2c-7.5,2.6-14.8,5.1-22.2,7.6c3,1.1,5.9,2.2,8.9,3.4c-4.2,4.2-8.3,8.3-12.5,12.4c0.8,0.8,1.5,1.5,2.4,2.4
			c4.1-4.1,8.2-8.3,12.4-12.4C82.7,43.3,83.8,46.2,84.9,49.2z"/>
	</g>
</g>
</svg>
